<svg id="Layer_1" data-name="Layer 1" xmlns="http://www.w3.org/2000/svg" viewBox="0 0 50 50">
  <defs>
    <style>
      .cls-1 {
        fill: white;
      }
    </style>
  </defs>
  <g>
    <path class="cls-1" d="M24.46,17.67l-4.71,15.2L14.33,16.23l-.19-.55L14,15a4.66,4.66,0,0,1-.36-2A1.55,1.55,0,0,1,14,11.88a3.48,3.48,0,0,1,1.45-.36V10.8H6.73v.72a2.87,2.87,0,0,1,1.44.54,3.45,3.45,0,0,1,1.27,2l.91,2.72.9,2.53,6.88,20.08h.72l6.33-20.26Z"/>
    <path class="cls-1" d="M41.83,10.62H35.67v.72a4.85,4.85,0,0,1,2.54.54,2,2,0,0,1,.9,1.81,9.75,9.75,0,0,1-.72,3.44L33.5,32.69,27.71,14.78a6.41,6.41,0,0,1-.36-2.17,1.2,1.2,0,0,1,.73-.91,6.19,6.19,0,0,1,2-.18V10.8H21v.72a2.45,2.45,0,0,1,1.27.54c.54.37.72.91,1.08,2l1.09,3.26L25,18.76l6.87,20.62h.73L40.2,15a4.63,4.63,0,0,1,1.44-2.53,15.7,15.7,0,0,1,1.63-.91V10.8A4.47,4.47,0,0,0,41.83,10.62Z"/>
  </g>
</svg>
