<?xml version="1.0" encoding="utf-8"?>
<!-- Generator: Adobe Illustrator 25.2.1, SVG Export Plug-In . SVG Version: 6.00 Build 0)  -->
<svg width="300px" version="1.1" id="Layer_1" xmlns="http://www.w3.org/2000/svg" xmlns:xlink="http://www.w3.org/1999/xlink" x="0px" y="0px"
	 viewBox="0 0 200 56" style="enable-background:new 0 0 200 56;" xml:space="preserve">
<style type="text/css">
	.st0{fill:#748B91;}
	.st1{fill:#545454;}
	.st2{fill:#B7B7B7;}
	.st3{fill:#0E0F0E;}
	.st4{fill:#435054;}
	.st5{fill:#78866B;}
	.st6{fill:#78866B;stroke:#78866B;stroke-width:0.25;stroke-miterlimit:10;}
	.st7{fill:#1B1C1B;}
	.st8{fill:#748B91;stroke:#748B91;stroke-width:0.25;stroke-miterlimit:10;}
</style>
<g>
	<path class="st7" d="M13.46,18.4c-0.54,0-1.05-0.01-1.54-0.02c-0.49-0.01-0.89-0.03-1.2-0.04v0.44c0.49,0.01,0.87,0.07,1.12,0.16
		c0.25,0.09,0.42,0.27,0.51,0.52c0.09,0.25,0.13,0.65,0.13,1.19v11.97c0,1.18-0.11,2.11-0.34,2.82c-0.23,0.7-0.56,1.21-1,1.51
		c-0.44,0.3-0.99,0.46-1.64,0.48v0.41c1.26,0,2.29-0.34,3.08-1.01c0.79-0.67,1.31-1.52,1.56-2.53c0.12-0.49,0.2-1.07,0.25-1.72
		c0.05-0.65,0.08-1.33,0.1-2.02c0.01-0.7,0.02-1.34,0.02-1.94v-7.96c0-0.54,0.04-0.93,0.13-1.19c0.09-0.25,0.26-0.43,0.51-0.52
		c0.25-0.09,0.63-0.15,1.12-0.16v-0.44c-0.33,0.01-0.75,0.03-1.25,0.04C14.52,18.39,14,18.4,13.46,18.4z"/>
	<path class="st7" d="M26.68,33.05c-0.15,0.09-0.33,0.13-0.53,0.13c-0.25,0-0.42-0.08-0.52-0.25c-0.1-0.17-0.15-0.42-0.15-0.77V26.1
		c0-0.7-0.06-1.3-0.17-1.8c-0.12-0.5-0.36-0.92-0.74-1.27c-0.28-0.26-0.62-0.46-1.04-0.6c-0.42-0.14-0.93-0.21-1.52-0.21
		c-0.67,0-1.27,0.08-1.8,0.25c-0.53,0.17-0.96,0.37-1.3,0.6c-0.29,0.2-0.53,0.42-0.72,0.65c-0.19,0.23-0.28,0.54-0.28,0.91
		c0,0.33,0.1,0.63,0.29,0.9c0.2,0.27,0.5,0.4,0.92,0.4c0.36,0,0.66-0.11,0.89-0.32c0.23-0.21,0.35-0.5,0.35-0.86
		c0-0.36-0.1-0.66-0.3-0.89c-0.2-0.23-0.44-0.38-0.72-0.44c0.25-0.32,0.58-0.53,0.99-0.63c0.41-0.1,0.8-0.15,1.16-0.15
		c0.38,0,0.72,0.05,1.02,0.16c0.3,0.11,0.55,0.32,0.73,0.64c0.18,0.32,0.27,0.78,0.27,1.39v1.35c0,0.33-0.15,0.61-0.45,0.83
		c-0.3,0.22-0.68,0.41-1.14,0.59c-0.46,0.17-0.95,0.35-1.47,0.53c-0.52,0.18-1,0.4-1.47,0.65c-0.46,0.25-0.85,0.58-1.14,0.98
		c-0.3,0.4-0.45,0.9-0.45,1.51c0,0.78,0.21,1.41,0.64,1.88c0.43,0.47,1.11,0.71,2.06,0.71c0.64,0,1.25-0.13,1.84-0.39
		c0.59-0.26,1.11-0.78,1.58-1.54c0,0.51,0.12,0.96,0.37,1.35c0.25,0.39,0.75,0.59,1.5,0.59c0.46,0,0.83-0.08,1.11-0.23
		c0.28-0.15,0.57-0.34,0.87-0.58l-0.24-0.37C26.98,32.85,26.83,32.96,26.68,33.05z M23.51,31.37c-0.36,0.6-0.75,1.02-1.17,1.27
		c-0.42,0.25-0.85,0.38-1.28,0.38c-0.49,0-0.91-0.16-1.24-0.49c-0.33-0.33-0.5-0.82-0.5-1.49c0-0.71,0.17-1.26,0.52-1.64
		c0.35-0.38,0.77-0.69,1.25-0.91c0.49-0.22,0.96-0.43,1.41-0.62c0.46-0.19,0.79-0.44,1.01-0.76V31.37z"/>
	<path class="st7" d="M38.4,31.72v-5.81c0-0.74-0.06-1.33-0.17-1.76s-0.31-0.8-0.59-1.09c-0.25-0.26-0.55-0.46-0.92-0.61
		c-0.37-0.15-0.83-0.22-1.38-0.22c-0.74,0-1.45,0.19-2.12,0.58c-0.67,0.38-1.2,1.07-1.58,2.06V22.3c-0.32,0.1-0.67,0.18-1.05,0.23
		c-0.38,0.05-0.79,0.08-1.21,0.08c-0.44,0-0.89-0.02-1.35-0.07v0.46c0.64,0,1.07,0.16,1.31,0.47c0.23,0.31,0.35,0.79,0.35,1.45v6.81
		c0,0.61-0.13,1.02-0.38,1.24c-0.25,0.22-0.68,0.33-1.27,0.33v0.46c0.25-0.01,0.62-0.03,1.13-0.05c0.51-0.02,1-0.03,1.48-0.03
		c0.48,0,0.95,0.01,1.4,0.03c0.46,0.02,0.8,0.04,1.03,0.05v-0.46c-0.52,0-0.89-0.11-1.11-0.33c-0.22-0.22-0.33-0.63-0.33-1.24v-4.83
		c0-1.12,0.28-2.06,0.84-2.82c0.56-0.76,1.29-1.14,2.21-1.14c0.52,0,0.91,0.12,1.16,0.35c0.25,0.23,0.42,0.54,0.49,0.91
		c0.07,0.38,0.11,0.79,0.11,1.24v6.29c0,0.61-0.11,1.02-0.33,1.24c-0.22,0.22-0.59,0.33-1.11,0.33v0.46
		c0.23-0.01,0.58-0.03,1.03-0.05c0.46-0.02,0.93-0.03,1.4-0.03c0.48,0,0.97,0.01,1.48,0.03c0.51,0.02,0.88,0.04,1.13,0.05v-0.46
		c-0.6,0-1.02-0.11-1.27-0.33C38.53,32.74,38.4,32.33,38.4,31.72z"/>
	<path class="st7" d="M48.63,32.65c-0.55,0.32-1.15,0.48-1.81,0.48c-0.55,0-1.09-0.19-1.6-0.55c-0.51-0.37-0.93-0.91-1.25-1.62
		c-0.32-0.71-0.48-1.56-0.48-2.55c0-0.26,0.01-0.52,0.02-0.78c0.01-0.22,0.03-0.42,0.06-0.61h6.8c0-1.64-0.36-2.85-1.08-3.62
		c-0.72-0.78-1.72-1.16-2.99-1.16c-0.99,0-1.85,0.25-2.59,0.75c-0.74,0.5-1.31,1.21-1.72,2.13c-0.41,0.92-0.61,2.02-0.61,3.3
		c0,1.1,0.2,2.08,0.6,2.93c0.4,0.85,0.97,1.51,1.72,1.99c0.75,0.48,1.64,0.72,2.69,0.72c0.73,0,1.36-0.14,1.91-0.42
		c0.55-0.28,1.01-0.65,1.37-1.1c0.36-0.45,0.62-0.91,0.78-1.39l-0.44-0.17C49.64,31.77,49.18,32.34,48.63,32.65z M44.44,23.64
		c0.51-0.67,1.11-1,1.77-1c0.49,0,0.9,0.18,1.21,0.54c0.31,0.36,0.54,0.85,0.69,1.45c0.14,0.6,0.2,1.26,0.17,1.97h-4.74
		C43.65,25.27,43.95,24.28,44.44,23.64z"/>
</g>
<g>
	<path class="st7" d="M85.15,32.63C84.6,32.94,84,33.1,83.35,33.1c-0.55,0-1.09-0.19-1.6-0.55c-0.51-0.37-0.93-0.91-1.25-1.62
		c-0.32-0.71-0.48-1.56-0.48-2.55c0-0.26,0.01-0.52,0.02-0.78c0.01-0.22,0.03-0.42,0.06-0.61h6.8c0-1.64-0.36-2.85-1.08-3.62
		c-0.72-0.78-1.72-1.16-2.99-1.16c-0.99,0-1.85,0.25-2.59,0.75c-0.74,0.5-1.31,1.21-1.72,2.13c-0.41,0.92-0.61,2.02-0.61,3.3
		c0,1.1,0.2,2.08,0.6,2.93c0.4,0.85,0.97,1.51,1.72,1.99c0.75,0.48,1.64,0.72,2.69,0.72c0.73,0,1.36-0.14,1.91-0.42
		s1.01-0.65,1.37-1.1c0.36-0.45,0.62-0.91,0.78-1.39l-0.44-0.17C86.17,31.74,85.71,32.31,85.15,32.63z M80.97,23.62
		c0.51-0.67,1.11-1,1.77-1c0.49,0,0.9,0.18,1.21,0.54c0.31,0.36,0.54,0.85,0.69,1.45c0.14,0.6,0.2,1.26,0.17,1.97h-4.74
		C80.18,25.24,80.48,24.25,80.97,23.62z"/>
	<path class="st7" d="M97.99,21.98c-0.54,0-1.05,0.19-1.54,0.57c-0.31,0.24-0.55,0.51-0.74,0.8c-0.11-0.12-0.21-0.23-0.34-0.33
		c-0.73-0.54-1.64-0.82-2.71-0.82c-1.07,0-1.98,0.27-2.71,0.82c-0.73,0.54-1.1,1.42-1.1,2.62c0,1.19,0.37,2.06,1.1,2.61
		c0.58,0.44,1.27,0.69,2.06,0.78c-0.7,0.36-1.2,0.71-1.51,1.06c-0.41,0.46-0.61,0.93-0.61,1.43c0,0.48,0.14,0.83,0.41,1.07
		c0.28,0.23,0.63,0.38,1.07,0.46c0.44,0.07,0.88,0.11,1.35,0.11h1.61c1,0,1.67,0.16,2.01,0.47c0.34,0.31,0.51,0.71,0.51,1.19
		c0,0.64-0.2,1.15-0.61,1.55c-0.41,0.39-0.92,0.67-1.54,0.84c-0.62,0.17-1.26,0.25-1.91,0.25c-0.99,0-1.79-0.18-2.4-0.53
		c-0.62-0.36-0.93-0.87-0.93-1.53c0-0.38,0.09-0.72,0.28-1.02c0.19-0.3,0.44-0.51,0.76-0.61l-0.13-0.35
		c-0.7,0.19-1.25,0.46-1.65,0.83c-0.41,0.36-0.61,0.8-0.61,1.31c0,0.52,0.21,0.95,0.62,1.29c0.41,0.34,0.96,0.59,1.64,0.75
		c0.68,0.16,1.41,0.24,2.18,0.24c1.28,0,2.35-0.18,3.21-0.55c0.86-0.37,1.51-0.85,1.95-1.45c0.44-0.6,0.65-1.23,0.65-1.91
		c0-0.91-0.34-1.57-1.03-1.97c-0.69-0.4-1.48-0.6-2.38-0.6h-2.72c-0.7,0-1.04-0.23-1.04-0.7c0-0.36,0.18-0.68,0.54-0.95
		c0.27-0.2,0.59-0.4,0.94-0.6c1.07,0,1.97-0.28,2.7-0.83c0.73-0.55,1.1-1.42,1.1-2.61c0-0.79-0.17-1.42-0.49-1.93
		c0.17-0.27,0.34-0.51,0.53-0.69c0.21-0.2,0.53-0.39,0.95-0.58c-0.16,0.42-0.25,0.79-0.23,1.07c0.03,0.33,0.14,0.58,0.33,0.73
		c0.19,0.15,0.39,0.23,0.61,0.23c0.25,0,0.49-0.09,0.73-0.27c0.24-0.18,0.36-0.5,0.36-0.95c0-0.42-0.12-0.74-0.35-0.95
		C98.68,22.09,98.37,21.98,97.99,21.98z M93.96,28.03c-0.31,0.44-0.74,0.65-1.3,0.65c-0.54,0-0.96-0.22-1.28-0.65
		c-0.32-0.44-0.48-1.23-0.48-2.39c0-1.16,0.16-1.96,0.48-2.39c0.32-0.44,0.75-0.65,1.28-0.65c0.55,0,0.98,0.22,1.3,0.65
		c0.31,0.44,0.47,1.23,0.47,2.39C94.42,26.8,94.27,27.6,93.96,28.03z"/>
	<path class="st7" d="M109.48,21.98c-0.54,0-1.05,0.19-1.55,0.57c-0.31,0.24-0.55,0.51-0.74,0.8c-0.11-0.12-0.21-0.23-0.34-0.33
		c-0.73-0.54-1.64-0.82-2.71-0.82c-1.07,0-1.98,0.27-2.71,0.82c-0.73,0.54-1.1,1.42-1.1,2.62c0,1.19,0.37,2.06,1.1,2.61
		c0.58,0.44,1.27,0.69,2.06,0.78c-0.7,0.36-1.2,0.71-1.51,1.06c-0.41,0.46-0.61,0.93-0.61,1.43c0,0.48,0.14,0.83,0.41,1.07
		c0.28,0.23,0.63,0.38,1.07,0.46c0.44,0.07,0.88,0.11,1.35,0.11h1.61c1,0,1.67,0.16,2.01,0.47c0.34,0.31,0.51,0.71,0.51,1.19
		c0,0.64-0.2,1.15-0.61,1.55c-0.41,0.39-0.92,0.67-1.54,0.84c-0.62,0.17-1.26,0.25-1.91,0.25c-0.99,0-1.79-0.18-2.4-0.53
		c-0.62-0.36-0.92-0.87-0.92-1.53c0-0.38,0.09-0.72,0.28-1.02c0.19-0.3,0.44-0.51,0.76-0.61l-0.13-0.35
		c-0.7,0.19-1.25,0.46-1.65,0.83c-0.41,0.36-0.61,0.8-0.61,1.31c0,0.52,0.21,0.95,0.62,1.29c0.41,0.34,0.96,0.59,1.64,0.75
		c0.68,0.16,1.41,0.24,2.18,0.24c1.28,0,2.35-0.18,3.21-0.55c0.86-0.37,1.51-0.85,1.95-1.45c0.44-0.6,0.65-1.23,0.65-1.91
		c0-0.91-0.34-1.57-1.03-1.97c-0.69-0.4-1.48-0.6-2.38-0.6h-2.72c-0.7,0-1.04-0.23-1.04-0.7c0-0.36,0.18-0.68,0.54-0.95
		c0.27-0.2,0.59-0.4,0.94-0.6c1.07,0,1.97-0.28,2.7-0.83c0.73-0.55,1.1-1.42,1.1-2.61c0-0.79-0.17-1.42-0.49-1.93
		c0.17-0.27,0.34-0.51,0.53-0.69c0.21-0.2,0.52-0.39,0.95-0.58c-0.16,0.42-0.25,0.79-0.23,1.07c0.03,0.33,0.14,0.58,0.33,0.73
		c0.19,0.15,0.39,0.23,0.61,0.23c0.25,0,0.49-0.09,0.73-0.27c0.24-0.18,0.36-0.5,0.36-0.95c0-0.42-0.12-0.74-0.35-0.95
		C110.17,22.09,109.86,21.98,109.48,21.98z M105.45,28.03c-0.31,0.44-0.74,0.65-1.3,0.65c-0.54,0-0.96-0.22-1.28-0.65
		c-0.32-0.44-0.48-1.23-0.48-2.39c0-1.16,0.16-1.96,0.48-2.39c0.32-0.44,0.75-0.65,1.28-0.65c0.55,0,0.98,0.22,1.3,0.65
		c0.31,0.44,0.47,1.23,0.47,2.39C105.92,26.8,105.76,27.6,105.45,28.03z"/>
	<path class="st7" d="M118.93,32.63c-0.55,0.32-1.15,0.48-1.81,0.48c-0.55,0-1.09-0.19-1.6-0.55c-0.51-0.37-0.93-0.91-1.25-1.62
		c-0.32-0.71-0.48-1.56-0.48-2.55c0-0.26,0.01-0.52,0.02-0.78c0.01-0.22,0.03-0.42,0.06-0.61h6.8c0-1.64-0.36-2.85-1.08-3.62
		c-0.72-0.78-1.72-1.16-2.99-1.16c-0.99,0-1.85,0.25-2.59,0.75c-0.74,0.5-1.31,1.21-1.72,2.13c-0.41,0.92-0.61,2.02-0.61,3.3
		c0,1.1,0.2,2.08,0.6,2.93c0.4,0.85,0.97,1.51,1.72,1.99c0.75,0.48,1.64,0.72,2.69,0.72c0.73,0,1.36-0.14,1.91-0.42
		c0.55-0.28,1.01-0.65,1.37-1.1c0.36-0.45,0.62-0.91,0.78-1.39l-0.44-0.17C119.94,31.74,119.48,32.31,118.93,32.63z M114.74,23.62
		c0.51-0.67,1.11-1,1.77-1c0.49,0,0.89,0.18,1.21,0.54c0.31,0.36,0.54,0.85,0.68,1.45c0.15,0.6,0.2,1.26,0.17,1.97h-4.74
		C113.96,25.24,114.25,24.25,114.74,23.62z"/>
	<path class="st7" d="M132.7,31.69v-5.81c0-0.74-0.06-1.33-0.17-1.76c-0.12-0.44-0.31-0.8-0.59-1.09c-0.25-0.26-0.55-0.46-0.92-0.61
		c-0.37-0.15-0.83-0.22-1.38-0.22c-0.74,0-1.45,0.19-2.12,0.58c-0.68,0.38-1.2,1.07-1.58,2.06v-2.57c-0.32,0.1-0.67,0.18-1.06,0.23
		c-0.38,0.05-0.79,0.08-1.21,0.08c-0.43,0-0.88-0.02-1.35-0.07v0.46c0.64,0,1.07,0.16,1.3,0.47c0.23,0.31,0.35,0.79,0.35,1.45v6.81
		c0,0.61-0.13,1.02-0.38,1.24c-0.25,0.22-0.68,0.33-1.27,0.33v0.46c0.25-0.01,0.62-0.03,1.13-0.05c0.51-0.02,1-0.03,1.48-0.03
		c0.48,0,0.95,0.01,1.4,0.03c0.46,0.02,0.8,0.04,1.03,0.05v-0.46c-0.52,0-0.89-0.11-1.11-0.33c-0.22-0.22-0.33-0.63-0.33-1.24v-4.83
		c0-1.12,0.28-2.06,0.84-2.82c0.56-0.76,1.3-1.14,2.21-1.14c0.52,0,0.91,0.12,1.16,0.35c0.25,0.23,0.42,0.54,0.49,0.91
		c0.07,0.38,0.11,0.79,0.11,1.24v6.29c0,0.61-0.11,1.02-0.33,1.24c-0.22,0.22-0.59,0.33-1.11,0.33v0.46
		c0.23-0.01,0.58-0.03,1.03-0.05s0.92-0.03,1.4-0.03c0.48,0,0.97,0.01,1.48,0.03c0.51,0.02,0.88,0.04,1.13,0.05v-0.46
		c-0.6,0-1.02-0.11-1.27-0.33C132.83,32.71,132.7,32.3,132.7,31.69z"/>
	<path class="st7" d="M152.03,31.69v-5.81c0-0.68-0.05-1.25-0.15-1.72c-0.1-0.46-0.29-0.84-0.57-1.13
		c-0.25-0.26-0.56-0.46-0.94-0.61c-0.38-0.15-0.82-0.22-1.33-0.22c-0.7,0-1.38,0.18-2.04,0.55c-0.66,0.37-1.19,1.05-1.58,2.04
		c-0.02-0.23-0.05-0.45-0.09-0.64c-0.1-0.46-0.29-0.84-0.57-1.13c-0.25-0.26-0.56-0.46-0.94-0.61c-0.38-0.15-0.82-0.22-1.33-0.22
		c-0.7,0-1.37,0.2-2.02,0.61c-0.65,0.41-1.17,1.08-1.55,2.02v-2.57c-0.32,0.1-0.67,0.18-1.06,0.23c-0.38,0.05-0.79,0.08-1.21,0.08
		c-0.43,0-0.88-0.02-1.35-0.07v0.46c0.64,0,1.07,0.16,1.3,0.47c0.23,0.31,0.35,0.79,0.35,1.45v6.81c0,0.61-0.13,1.02-0.38,1.24
		c-0.25,0.22-0.68,0.33-1.27,0.33v0.46c0.25-0.01,0.62-0.03,1.13-0.05c0.51-0.02,1-0.03,1.48-0.03c0.48,0,0.95,0.01,1.4,0.03
		c0.46,0.02,0.8,0.04,1.03,0.05v-0.46c-0.52,0-0.89-0.11-1.11-0.33c-0.22-0.22-0.33-0.63-0.33-1.24v-4.83
		c0-0.74,0.13-1.41,0.38-2.01c0.25-0.6,0.6-1.08,1.04-1.43c0.44-0.35,0.95-0.52,1.51-0.52c0.52,0,0.9,0.12,1.13,0.35
		c0.23,0.23,0.38,0.54,0.44,0.91c0.06,0.38,0.09,0.79,0.09,1.24v6.29c0,0.61-0.11,1.02-0.33,1.24c-0.22,0.22-0.59,0.33-1.11,0.33
		v0.46c0.23-0.01,0.58-0.03,1.03-0.05c0.46-0.02,0.93-0.03,1.4-0.03c0.48,0,0.97,0.01,1.48,0.03c0.51,0.02,0.88,0.04,1.13,0.05
		v-0.46c-0.6,0-1.02-0.11-1.27-0.33c-0.25-0.22-0.38-0.63-0.38-1.24v-4.85c0-1.12,0.28-2.05,0.84-2.81c0.56-0.75,1.26-1.13,2.1-1.13
		c0.52,0,0.9,0.12,1.13,0.35c0.23,0.23,0.38,0.54,0.44,0.91c0.06,0.38,0.09,0.79,0.09,1.24v6.29c0,0.61-0.11,1.02-0.33,1.24
		c-0.22,0.22-0.59,0.33-1.11,0.33v0.46c0.23-0.01,0.58-0.03,1.03-0.05c0.46-0.02,0.93-0.03,1.4-0.03c0.48,0,0.97,0.01,1.48,0.03
		c0.51,0.02,0.88,0.04,1.13,0.05v-0.46c-0.6,0-1.02-0.11-1.27-0.33C152.15,32.71,152.03,32.3,152.03,31.69z"/>
	<path class="st7" d="M164.14,33.02c-0.15,0.09-0.33,0.13-0.53,0.13c-0.25,0-0.42-0.08-0.52-0.25c-0.1-0.17-0.15-0.42-0.15-0.77
		v-6.05c0-0.7-0.06-1.3-0.17-1.8c-0.12-0.5-0.36-0.92-0.74-1.27c-0.28-0.26-0.62-0.46-1.04-0.6c-0.42-0.14-0.93-0.21-1.52-0.21
		c-0.67,0-1.27,0.08-1.8,0.25c-0.53,0.17-0.96,0.37-1.29,0.6c-0.29,0.2-0.53,0.42-0.72,0.65c-0.19,0.23-0.28,0.54-0.28,0.91
		c0,0.33,0.1,0.63,0.29,0.9c0.2,0.27,0.5,0.4,0.92,0.4c0.36,0,0.66-0.11,0.89-0.32c0.23-0.21,0.35-0.5,0.35-0.86
		c0-0.36-0.1-0.66-0.3-0.89c-0.2-0.23-0.44-0.38-0.72-0.44c0.25-0.32,0.58-0.53,0.99-0.63c0.41-0.1,0.8-0.15,1.16-0.15
		c0.38,0,0.72,0.05,1.02,0.16c0.3,0.11,0.55,0.32,0.73,0.64c0.18,0.32,0.27,0.78,0.27,1.39v1.35c0,0.33-0.15,0.61-0.45,0.83
		c-0.3,0.22-0.68,0.41-1.14,0.59c-0.47,0.17-0.95,0.35-1.47,0.53c-0.52,0.18-1,0.4-1.47,0.65c-0.46,0.25-0.85,0.58-1.14,0.98
		c-0.3,0.4-0.45,0.9-0.45,1.51c0,0.78,0.21,1.41,0.64,1.88c0.43,0.47,1.11,0.71,2.06,0.71c0.64,0,1.25-0.13,1.84-0.39
		c0.59-0.26,1.11-0.78,1.58-1.54c0,0.51,0.12,0.96,0.37,1.35c0.25,0.39,0.75,0.59,1.5,0.59c0.47,0,0.83-0.08,1.11-0.23
		c0.28-0.15,0.57-0.34,0.87-0.58l-0.24-0.37C164.44,32.82,164.29,32.93,164.14,33.02z M160.97,31.34c-0.36,0.6-0.75,1.02-1.17,1.27
		c-0.42,0.25-0.85,0.38-1.28,0.38c-0.49,0-0.91-0.16-1.24-0.49c-0.33-0.33-0.5-0.82-0.5-1.49c0-0.71,0.17-1.26,0.52-1.64
		c0.35-0.38,0.77-0.69,1.25-0.91c0.49-0.22,0.96-0.43,1.41-0.62c0.46-0.19,0.79-0.44,1.01-0.76V31.34z"/>
	<path class="st7" d="M175.86,31.69v-5.81c0-0.74-0.06-1.33-0.17-1.76c-0.12-0.44-0.31-0.8-0.59-1.09
		c-0.25-0.26-0.55-0.46-0.92-0.61c-0.37-0.15-0.83-0.22-1.38-0.22c-0.74,0-1.45,0.19-2.12,0.58c-0.68,0.38-1.2,1.07-1.58,2.06v-2.57
		c-0.32,0.1-0.67,0.18-1.06,0.23c-0.38,0.05-0.79,0.08-1.21,0.08c-0.43,0-0.88-0.02-1.35-0.07v0.46c0.64,0,1.07,0.16,1.3,0.47
		c0.23,0.31,0.35,0.79,0.35,1.45v6.81c0,0.61-0.13,1.02-0.38,1.24c-0.25,0.22-0.68,0.33-1.27,0.33v0.46
		c0.25-0.01,0.62-0.03,1.13-0.05c0.51-0.02,1-0.03,1.48-0.03c0.48,0,0.95,0.01,1.4,0.03c0.46,0.02,0.8,0.04,1.03,0.05v-0.46
		c-0.52,0-0.89-0.11-1.11-0.33c-0.22-0.22-0.33-0.63-0.33-1.24v-4.83c0-1.12,0.28-2.06,0.84-2.82c0.56-0.76,1.3-1.14,2.21-1.14
		c0.52,0,0.91,0.12,1.16,0.35c0.25,0.23,0.42,0.54,0.49,0.91c0.07,0.38,0.11,0.79,0.11,1.24v6.29c0,0.61-0.11,1.02-0.33,1.24
		c-0.22,0.22-0.59,0.33-1.11,0.33v0.46c0.23-0.01,0.58-0.03,1.03-0.05c0.46-0.02,0.92-0.03,1.4-0.03c0.48,0,0.97,0.01,1.48,0.03
		c0.51,0.02,0.88,0.04,1.13,0.05v-0.46c-0.6,0-1.02-0.11-1.27-0.33C175.98,32.71,175.86,32.3,175.86,31.69z"/>
	<path class="st7" d="M189.23,32.93c-0.25-0.22-0.38-0.63-0.38-1.24v-5.81c0-0.74-0.06-1.33-0.17-1.76
		c-0.12-0.44-0.31-0.8-0.59-1.09c-0.25-0.26-0.55-0.46-0.92-0.61c-0.37-0.15-0.83-0.22-1.38-0.22c-0.74,0-1.45,0.19-2.12,0.58
		c-0.68,0.38-1.2,1.07-1.58,2.06v-2.57c-0.32,0.1-0.67,0.18-1.06,0.23c-0.38,0.05-0.79,0.08-1.21,0.08c-0.43,0-0.88-0.02-1.35-0.07
		v0.46c0.64,0,1.07,0.16,1.3,0.47c0.23,0.31,0.35,0.79,0.35,1.45v6.81c0,0.61-0.13,1.02-0.38,1.24c-0.25,0.22-0.68,0.33-1.27,0.33
		v0.46c0.25-0.01,0.62-0.03,1.13-0.05c0.51-0.02,1-0.03,1.48-0.03c0.48,0,0.95,0.01,1.4,0.03s0.8,0.04,1.03,0.05v-0.46
		c-0.52,0-0.89-0.11-1.11-0.33c-0.22-0.22-0.33-0.63-0.33-1.24v-4.83c0-1.12,0.28-2.06,0.84-2.82c0.56-0.76,1.3-1.14,2.21-1.14
		c0.52,0,0.91,0.12,1.16,0.35c0.25,0.23,0.42,0.54,0.49,0.91c0.07,0.38,0.11,0.79,0.11,1.24v6.29c0,0.61-0.11,1.02-0.33,1.24
		c-0.22,0.22-0.59,0.33-1.11,0.33v0.46c0.23-0.01,0.58-0.03,1.03-0.05s0.92-0.03,1.4-0.03c0.48,0,0.97,0.01,1.48,0.03
		c0.51,0.02,0.88,0.04,1.13,0.05v-0.46C189.9,33.26,189.48,33.15,189.23,32.93z"/>
</g>
<path class="st6" d="M68.28,22.11l-2.62,8.37l-3.01-9.18l-0.1-0.32l-0.14-0.41c-0.15-0.46-0.23-0.82-0.23-1.08
	c-0.01-0.26,0.07-0.45,0.24-0.57c0.17-0.12,0.45-0.19,0.83-0.22v-0.44c-0.27,0.02-0.61,0.03-1.03,0.04
	c-0.42,0.02-0.88,0.02-1.37,0.02c-0.41,0-0.84-0.01-1.28-0.02c-0.44-0.01-0.8-0.03-1.1-0.04v0.44c0.24,0.01,0.5,0.11,0.8,0.29
	c0.3,0.18,0.54,0.55,0.73,1.13l0.52,1.54l0.44,1.31l3.75,11.12c0.03,0,0.06,0,0.09,0c0.03,0,0.06,0,0.09,0c0.03,0,0.06,0,0.09,0
	c0.03,0,0.06,0,0.09,0l3.46-11.21L68.28,22.11z"/>
<path class="st8" d="M77.87,18.21c-0.25,0.02-0.57,0.02-0.95,0.02c-0.39,0-0.8-0.01-1.24-0.02c-0.44-0.01-0.88-0.03-1.31-0.04v0.44
	c0.62,0.01,1.09,0.11,1.4,0.3c0.31,0.19,0.48,0.5,0.5,0.95c0.02,0.45-0.1,1.08-0.37,1.9l-2.73,8.6l-3.2-9.88
	c-0.18-0.58-0.25-0.99-0.21-1.24c0.04-0.25,0.18-0.41,0.44-0.49c0.26-0.07,0.61-0.12,1.06-0.13v-0.44
	c-0.31,0.02-0.72,0.03-1.22,0.04c-0.5,0.02-1.04,0.02-1.62,0.02c-0.37,0-0.75-0.01-1.15-0.02c-0.4-0.01-0.73-0.03-1-0.04v0.44
	c0.21,0.01,0.43,0.11,0.67,0.29c0.24,0.18,0.45,0.55,0.64,1.13l0.59,1.75l0.26,0.77L72.28,34c0.03,0,0.06,0,0.09,0
	c0.03,0,0.06,0,0.09,0c0.03,0,0.06,0,0.09,0c0.03,0,0.06,0,0.09,0l4.2-13.46c0.21-0.68,0.48-1.16,0.82-1.43
	c0.34-0.27,0.65-0.44,0.93-0.5v-0.44C78.36,18.18,78.13,18.2,77.87,18.21z"/>
</svg>
