<?xml version="1.0" encoding="utf-8"?>
<!-- Generator: Adobe Illustrator 25.4.1, SVG Export Plug-In . SVG Version: 6.00 Build 0)  -->
<svg version="1.1" id="Layer_1" xmlns="http://www.w3.org/2000/svg" xmlns:xlink="http://www.w3.org/1999/xlink" x="0px" y="0px"
	 viewBox="0 0 300 56" style="enable-background:new 0 0 300 56;" xml:space="preserve">
<style type="text/css">
	.st0{fill:#FFFFFF;}
	.st1{fill:#78866B;stroke:#78866B;stroke-width:0.25;stroke-miterlimit:10;}
	.st2{fill:#748B91;stroke:#748B91;stroke-width:0.25;stroke-miterlimit:10;}
</style>
<g>
	<path class="st0" d="M63.5,18.4c-0.5,0-1,0-1.5,0c-0.5,0-0.9,0-1.2,0v0.4c0.5,0,0.9,0.1,1.1,0.2s0.4,0.3,0.5,0.5
		c0.1,0.2,0.1,0.6,0.1,1.2v12c0,1.2-0.1,2.1-0.3,2.8c-0.2,0.7-0.6,1.2-1,1.5c-0.4,0.3-1,0.5-1.6,0.5v0.4c1.3,0,2.3-0.3,3.1-1
		c0.8-0.7,1.3-1.5,1.6-2.5c0.1-0.5,0.2-1.1,0.2-1.7c0.1-0.6,0.1-1.3,0.1-2c0-0.7,0-1.3,0-1.9v-8c0-0.5,0-0.9,0.1-1.2
		c0.1-0.2,0.3-0.4,0.5-0.5s0.6-0.1,1.1-0.2v-0.4c-0.3,0-0.8,0-1.2,0C64.5,18.4,64,18.4,63.5,18.4z"/>
	<path class="st0" d="M76.7,33c-0.2,0.1-0.3,0.1-0.5,0.1c-0.2,0-0.4-0.1-0.5-0.2s-0.2-0.4-0.2-0.8v-6.1c0-0.7-0.1-1.3-0.2-1.8
		c-0.1-0.5-0.4-0.9-0.7-1.3c-0.3-0.3-0.6-0.5-1-0.6c-0.4-0.1-0.9-0.2-1.5-0.2c-0.7,0-1.3,0.1-1.8,0.2s-1,0.4-1.3,0.6
		c-0.3,0.2-0.5,0.4-0.7,0.6c-0.2,0.2-0.3,0.5-0.3,0.9c0,0.3,0.1,0.6,0.3,0.9c0.2,0.3,0.5,0.4,0.9,0.4c0.4,0,0.7-0.1,0.9-0.3
		c0.2-0.2,0.3-0.5,0.3-0.9s-0.1-0.7-0.3-0.9c-0.2-0.2-0.4-0.4-0.7-0.4c0.2-0.3,0.6-0.5,1-0.6c0.4-0.1,0.8-0.1,1.2-0.1
		c0.4,0,0.7,0,1,0.2c0.3,0.1,0.5,0.3,0.7,0.6c0.2,0.3,0.3,0.8,0.3,1.4v1.4c0,0.3-0.2,0.6-0.5,0.8c-0.3,0.2-0.7,0.4-1.1,0.6
		c-0.5,0.2-0.9,0.4-1.5,0.5c-0.5,0.2-1,0.4-1.5,0.6c-0.5,0.2-0.8,0.6-1.1,1c-0.3,0.4-0.5,0.9-0.5,1.5c0,0.8,0.2,1.4,0.6,1.9
		c0.4,0.5,1.1,0.7,2.1,0.7c0.6,0,1.2-0.1,1.8-0.4c0.6-0.3,1.1-0.8,1.6-1.5c0,0.5,0.1,1,0.4,1.3s0.8,0.6,1.5,0.6
		c0.5,0,0.8-0.1,1.1-0.2c0.3-0.2,0.6-0.3,0.9-0.6l-0.2-0.4C77,32.8,76.8,33,76.7,33z M73.5,31.4c-0.4,0.6-0.8,1-1.2,1.3
		c-0.4,0.2-0.8,0.4-1.3,0.4c-0.5,0-0.9-0.2-1.2-0.5s-0.5-0.8-0.5-1.5c0-0.7,0.2-1.3,0.5-1.6c0.4-0.4,0.8-0.7,1.2-0.9
		c0.5-0.2,1-0.4,1.4-0.6c0.5-0.2,0.8-0.4,1-0.8V31.4z"/>
	<path class="st0" d="M88.4,31.7v-5.8c0-0.7-0.1-1.3-0.2-1.8s-0.3-0.8-0.6-1.1c-0.2-0.3-0.5-0.5-0.9-0.6c-0.4-0.1-0.8-0.2-1.4-0.2
		c-0.7,0-1.5,0.2-2.1,0.6c-0.7,0.4-1.2,1.1-1.6,2.1v-2.6c-0.3,0.1-0.7,0.2-1.1,0.2s-0.8,0.1-1.2,0.1c-0.4,0-0.9,0-1.3-0.1V23
		c0.6,0,1.1,0.2,1.3,0.5c0.2,0.3,0.3,0.8,0.3,1.5v6.8c0,0.6-0.1,1-0.4,1.2s-0.7,0.3-1.3,0.3v0.5c0.2,0,0.6,0,1.1,0s1,0,1.5,0
		c0.5,0,1,0,1.4,0c0.5,0,0.8,0,1,0v-0.5c-0.5,0-0.9-0.1-1.1-0.3s-0.3-0.6-0.3-1.2v-4.8c0-1.1,0.3-2.1,0.8-2.8
		c0.6-0.8,1.3-1.1,2.2-1.1c0.5,0,0.9,0.1,1.2,0.4s0.4,0.5,0.5,0.9c0.1,0.4,0.1,0.8,0.1,1.2v6.3c0,0.6-0.1,1-0.3,1.2
		s-0.6,0.3-1.1,0.3v0.5c0.2,0,0.6,0,1,0c0.5,0,0.9,0,1.4,0c0.5,0,1,0,1.5,0s0.9,0,1.1,0v-0.5c-0.6,0-1-0.1-1.3-0.3
		C88.5,32.7,88.4,32.3,88.4,31.7z"/>
	<path class="st0" d="M98.6,32.7c-0.6,0.3-1.2,0.5-1.8,0.5c-0.5,0-1.1-0.2-1.6-0.5c-0.5-0.4-0.9-0.9-1.2-1.6
		c-0.3-0.7-0.5-1.6-0.5-2.5c0-0.3,0-0.5,0-0.8c0-0.2,0-0.4,0.1-0.6h6.8c0-1.6-0.4-2.9-1.1-3.6c-0.7-0.8-1.7-1.2-3-1.2
		c-1,0-1.9,0.2-2.6,0.8s-1.3,1.2-1.7,2.1c-0.4,0.9-0.6,2-0.6,3.3c0,1.1,0.2,2.1,0.6,2.9c0.4,0.8,1,1.5,1.7,2
		c0.8,0.5,1.6,0.7,2.7,0.7c0.7,0,1.4-0.1,1.9-0.4s1-0.7,1.4-1.1c0.4-0.5,0.6-0.9,0.8-1.4L100,31C99.6,31.8,99.2,32.3,98.6,32.7z
		 M94.4,23.6c0.5-0.7,1.1-1,1.8-1c0.5,0,0.9,0.2,1.2,0.5s0.5,0.9,0.7,1.5c0.1,0.6,0.2,1.3,0.2,2h-4.7C93.7,25.3,93.9,24.3,94.4,23.6
		z"/>
</g>
<g>
	<path class="st0" d="M135.1,32.6c-0.5,0.3-1.1,0.5-1.8,0.5c-0.6,0-1.1-0.2-1.6-0.5c-0.5-0.4-0.9-0.9-1.2-1.6
		c-0.3-0.7-0.5-1.6-0.5-2.5c0-0.3,0-0.5,0-0.8c0-0.2,0-0.4,0.1-0.6h6.8c0-1.6-0.4-2.9-1.1-3.6c-0.7-0.8-1.7-1.2-3-1.2
		c-1,0-1.8,0.2-2.6,0.8c-0.7,0.5-1.3,1.2-1.7,2.1c-0.4,0.9-0.6,2-0.6,3.3c0,1.1,0.2,2.1,0.6,2.9c0.4,0.8,1,1.5,1.7,2
		c0.8,0.5,1.6,0.7,2.7,0.7c0.7,0,1.4-0.1,1.9-0.4s1-0.7,1.4-1.1c0.4-0.5,0.6-0.9,0.8-1.4l-0.4-0.2C136.2,31.7,135.7,32.3,135.1,32.6
		z M131,23.6c0.5-0.7,1.1-1,1.8-1c0.5,0,0.9,0.2,1.2,0.5s0.5,0.9,0.7,1.5c0.1,0.6,0.2,1.3,0.2,2h-4.7
		C130.2,25.2,130.5,24.2,131,23.6z"/>
	<path class="st0" d="M148,22c-0.5,0-1,0.2-1.5,0.6c-0.3,0.2-0.6,0.5-0.7,0.8c-0.1-0.1-0.2-0.2-0.3-0.3c-0.7-0.5-1.6-0.8-2.7-0.8
		s-2,0.3-2.7,0.8c-0.7,0.5-1.1,1.4-1.1,2.6c0,1.2,0.4,2.1,1.1,2.6c0.6,0.4,1.3,0.7,2.1,0.8c-0.7,0.4-1.2,0.7-1.5,1.1
		c-0.4,0.5-0.6,0.9-0.6,1.4c0,0.5,0.1,0.8,0.4,1.1c0.3,0.2,0.6,0.4,1.1,0.5c0.4,0.1,0.9,0.1,1.4,0.1h1.6c1,0,1.7,0.2,2,0.5
		s0.5,0.7,0.5,1.2c0,0.6-0.2,1.2-0.6,1.5c-0.4,0.4-0.9,0.7-1.5,0.8c-0.6,0.2-1.3,0.2-1.9,0.2c-1,0-1.8-0.2-2.4-0.5
		c-0.6-0.4-0.9-0.9-0.9-1.5c0-0.4,0.1-0.7,0.3-1s0.4-0.5,0.8-0.6l-0.1-0.3c-0.7,0.2-1.2,0.5-1.6,0.8c-0.4,0.4-0.6,0.8-0.6,1.3
		c0,0.5,0.2,1,0.6,1.3s1,0.6,1.6,0.8c0.7,0.2,1.4,0.2,2.2,0.2c1.3,0,2.3-0.2,3.2-0.5c0.9-0.4,1.5-0.8,1.9-1.5
		c0.4-0.6,0.7-1.2,0.7-1.9c0-0.9-0.3-1.6-1-2s-1.5-0.6-2.4-0.6h-2.7c-0.7,0-1-0.2-1-0.7c0-0.4,0.2-0.7,0.5-1
		c0.3-0.2,0.6-0.4,0.9-0.6c1.1,0,2-0.3,2.7-0.8c0.7-0.5,1.1-1.4,1.1-2.6c0-0.8-0.2-1.4-0.5-1.9c0.2-0.3,0.3-0.5,0.5-0.7
		c0.2-0.2,0.5-0.4,0.9-0.6c-0.2,0.4-0.2,0.8-0.2,1.1c0,0.3,0.1,0.6,0.3,0.7s0.4,0.2,0.6,0.2c0.2,0,0.5-0.1,0.7-0.3
		c0.2-0.2,0.4-0.5,0.4-1c0-0.4-0.1-0.7-0.4-1C148.7,22.1,148.4,22,148,22z M144,28c-0.3,0.4-0.7,0.6-1.3,0.6c-0.5,0-1-0.2-1.3-0.6
		c-0.3-0.4-0.5-1.2-0.5-2.4s0.2-2,0.5-2.4c0.3-0.4,0.8-0.6,1.3-0.6c0.5,0,1,0.2,1.3,0.6c0.3,0.4,0.5,1.2,0.5,2.4
		C144.4,26.8,144.3,27.6,144,28z"/>
	<path class="st0" d="M159.5,22c-0.5,0-1.1,0.2-1.6,0.6c-0.3,0.2-0.5,0.5-0.7,0.8c-0.1-0.1-0.2-0.2-0.3-0.3
		c-0.7-0.5-1.6-0.8-2.7-0.8c-1.1,0-2,0.3-2.7,0.8c-0.7,0.5-1.1,1.4-1.1,2.6c0,1.2,0.4,2.1,1.1,2.6c0.6,0.4,1.3,0.7,2.1,0.8
		c-0.7,0.4-1.2,0.7-1.5,1.1c-0.4,0.5-0.6,0.9-0.6,1.4c0,0.5,0.1,0.8,0.4,1.1c0.3,0.2,0.6,0.4,1.1,0.5c0.4,0.1,0.9,0.1,1.4,0.1h1.6
		c1,0,1.7,0.2,2,0.5s0.5,0.7,0.5,1.2c0,0.6-0.2,1.2-0.6,1.5c-0.4,0.4-0.9,0.7-1.5,0.8c-0.6,0.2-1.3,0.2-1.9,0.2
		c-1,0-1.8-0.2-2.4-0.5c-0.6-0.4-0.9-0.9-0.9-1.5c0-0.4,0.1-0.7,0.3-1s0.4-0.5,0.8-0.6l-0.1-0.3c-0.7,0.2-1.2,0.5-1.7,0.8
		c-0.4,0.4-0.6,0.8-0.6,1.3c0,0.5,0.2,1,0.6,1.3s1,0.6,1.6,0.8c0.7,0.2,1.4,0.2,2.2,0.2c1.3,0,2.4-0.2,3.2-0.5
		c0.9-0.4,1.5-0.8,2-1.5c0.4-0.6,0.6-1.2,0.6-1.9c0-0.9-0.3-1.6-1-2s-1.5-0.6-2.4-0.6h-2.7c-0.7,0-1-0.2-1-0.7c0-0.4,0.2-0.7,0.5-1
		c0.3-0.2,0.6-0.4,0.9-0.6c1.1,0,2-0.3,2.7-0.8c0.7-0.5,1.1-1.4,1.1-2.6c0-0.8-0.2-1.4-0.5-1.9c0.2-0.3,0.3-0.5,0.5-0.7
		c0.2-0.2,0.5-0.4,1-0.6c-0.2,0.4-0.2,0.8-0.2,1.1c0,0.3,0.1,0.6,0.3,0.7s0.4,0.2,0.6,0.2c0.2,0,0.5-0.1,0.7-0.3
		c0.2-0.2,0.4-0.5,0.4-1c0-0.4-0.1-0.7-0.3-1C160.2,22.1,159.9,22,159.5,22z M155.4,28c-0.3,0.4-0.7,0.6-1.3,0.6
		c-0.5,0-1-0.2-1.3-0.6c-0.3-0.4-0.5-1.2-0.5-2.4s0.2-2,0.5-2.4c0.3-0.4,0.8-0.6,1.3-0.6c0.6,0,1,0.2,1.3,0.6
		c0.3,0.4,0.5,1.2,0.5,2.4C155.9,26.8,155.8,27.6,155.4,28z"/>
	<path class="st0" d="M168.9,32.6c-0.5,0.3-1.1,0.5-1.8,0.5c-0.5,0-1.1-0.2-1.6-0.5c-0.5-0.4-0.9-0.9-1.2-1.6
		c-0.3-0.7-0.5-1.6-0.5-2.5c0-0.3,0-0.5,0-0.8c0-0.2,0-0.4,0.1-0.6h6.8c0-1.6-0.4-2.9-1.1-3.6c-0.7-0.8-1.7-1.2-3-1.2
		c-1,0-1.9,0.2-2.6,0.8c-0.7,0.5-1.3,1.2-1.7,2.1c-0.4,0.9-0.6,2-0.6,3.3c0,1.1,0.2,2.1,0.6,2.9c0.4,0.8,1,1.5,1.7,2
		c0.8,0.5,1.6,0.7,2.7,0.7c0.7,0,1.4-0.1,1.9-0.4s1-0.7,1.4-1.1c0.4-0.5,0.6-0.9,0.8-1.4l-0.4-0.2C169.9,31.7,169.5,32.3,168.9,32.6
		z M164.7,23.6c0.5-0.7,1.1-1,1.8-1c0.5,0,0.9,0.2,1.2,0.5c0.3,0.4,0.5,0.9,0.7,1.5c0.1,0.6,0.2,1.3,0.2,2h-4.7
		C164,25.2,164.2,24.2,164.7,23.6z"/>
	<path class="st0" d="M182.7,31.7v-5.8c0-0.7-0.1-1.3-0.2-1.8c-0.1-0.4-0.3-0.8-0.6-1.1c-0.2-0.3-0.6-0.5-0.9-0.6
		c-0.4-0.1-0.8-0.2-1.4-0.2c-0.7,0-1.4,0.2-2.1,0.6c-0.7,0.4-1.2,1.1-1.6,2.1v-2.6c-0.3,0.1-0.7,0.2-1.1,0.2c-0.4,0-0.8,0.1-1.2,0.1
		c-0.4,0-0.9,0-1.3-0.1V23c0.6,0,1.1,0.2,1.3,0.5c0.2,0.3,0.4,0.8,0.4,1.5v6.8c0,0.6-0.1,1-0.4,1.2s-0.7,0.3-1.3,0.3v0.5
		c0.2,0,0.6,0,1.1,0c0.5,0,1,0,1.5,0s0.9,0,1.4,0c0.5,0,0.8,0,1,0v-0.5c-0.5,0-0.9-0.1-1.1-0.3s-0.3-0.6-0.3-1.2v-4.8
		c0-1.1,0.3-2.1,0.8-2.8s1.3-1.1,2.2-1.1c0.5,0,0.9,0.1,1.2,0.4s0.4,0.5,0.5,0.9c0.1,0.4,0.1,0.8,0.1,1.2v6.3c0,0.6-0.1,1-0.3,1.2
		s-0.6,0.3-1.1,0.3v0.5c0.2,0,0.6,0,1,0s0.9,0,1.4,0s1,0,1.5,0s0.9,0,1.1,0v-0.5c-0.6,0-1-0.1-1.3-0.3
		C182.8,32.7,182.7,32.3,182.7,31.7z"/>
	<path class="st0" d="M202,31.7v-5.8c0-0.7-0.1-1.2-0.1-1.7c-0.1-0.5-0.3-0.8-0.6-1.1c-0.2-0.3-0.6-0.5-0.9-0.6
		c-0.4-0.1-0.8-0.2-1.3-0.2c-0.7,0-1.4,0.2-2,0.5c-0.7,0.4-1.2,1-1.6,2c0-0.2-0.1-0.5-0.1-0.6c-0.1-0.5-0.3-0.8-0.6-1.1
		c-0.2-0.3-0.6-0.5-0.9-0.6c-0.4-0.1-0.8-0.2-1.3-0.2c-0.7,0-1.4,0.2-2,0.6c-0.6,0.4-1.2,1.1-1.6,2v-2.6c-0.3,0.1-0.7,0.2-1.1,0.2
		c-0.4,0-0.8,0.1-1.2,0.1c-0.4,0-0.9,0-1.4-0.1V23c0.6,0,1.1,0.2,1.3,0.5s0.4,0.8,0.4,1.5v6.8c0,0.6-0.1,1-0.4,1.2s-0.7,0.3-1.3,0.3
		v0.5c0.2,0,0.6,0,1.1,0c0.5,0,1,0,1.5,0s0.9,0,1.4,0c0.5,0,0.8,0,1,0v-0.5c-0.5,0-0.9-0.1-1.1-0.3s-0.3-0.6-0.3-1.2v-4.8
		c0-0.7,0.1-1.4,0.4-2s0.6-1.1,1-1.4c0.4-0.4,0.9-0.5,1.5-0.5c0.5,0,0.9,0.1,1.1,0.4c0.2,0.2,0.4,0.5,0.4,0.9
		c0.1,0.4,0.1,0.8,0.1,1.2v6.3c0,0.6-0.1,1-0.3,1.2s-0.6,0.3-1.1,0.3v0.5c0.2,0,0.6,0,1,0c0.5,0,0.9,0,1.4,0c0.5,0,1,0,1.5,0
		s0.9,0,1.1,0v-0.5c-0.6,0-1-0.1-1.3-0.3s-0.4-0.6-0.4-1.2v-4.9c0-1.1,0.3-2,0.8-2.8c0.6-0.8,1.3-1.1,2.1-1.1c0.5,0,0.9,0.1,1.1,0.4
		c0.2,0.2,0.4,0.5,0.4,0.9c0.1,0.4,0.1,0.8,0.1,1.2v6.3c0,0.6-0.1,1-0.3,1.2s-0.6,0.3-1.1,0.3v0.5c0.2,0,0.6,0,1,0
		c0.5,0,0.9,0,1.4,0c0.5,0,1,0,1.5,0s0.9,0,1.1,0v-0.5c-0.6,0-1-0.1-1.3-0.3C202.1,32.7,202,32.3,202,31.7z"/>
	<path class="st0" d="M214.1,33c-0.1,0.1-0.3,0.1-0.5,0.1c-0.2,0-0.4-0.1-0.5-0.2s-0.1-0.4-0.1-0.8v-6c0-0.7-0.1-1.3-0.2-1.8
		c-0.1-0.5-0.4-0.9-0.7-1.3c-0.3-0.3-0.6-0.5-1-0.6c-0.4-0.1-0.9-0.2-1.5-0.2c-0.7,0-1.3,0.1-1.8,0.2s-1,0.4-1.3,0.6
		c-0.3,0.2-0.5,0.4-0.7,0.6s-0.3,0.5-0.3,0.9c0,0.3,0.1,0.6,0.3,0.9c0.2,0.3,0.5,0.4,0.9,0.4c0.4,0,0.7-0.1,0.9-0.3s0.4-0.5,0.4-0.9
		s-0.1-0.7-0.3-0.9s-0.4-0.4-0.7-0.4c0.2-0.3,0.6-0.5,1-0.6c0.4-0.1,0.8-0.1,1.2-0.1c0.4,0,0.7,0,1,0.2s0.6,0.3,0.7,0.6
		s0.3,0.8,0.3,1.4v1.4c0,0.3-0.1,0.6-0.4,0.8s-0.7,0.4-1.1,0.6c-0.5,0.2-0.9,0.4-1.5,0.5s-1,0.4-1.5,0.6c-0.5,0.2-0.9,0.6-1.1,1
		c-0.3,0.4-0.4,0.9-0.4,1.5c0,0.8,0.2,1.4,0.6,1.9c0.4,0.5,1.1,0.7,2.1,0.7c0.6,0,1.2-0.1,1.8-0.4s1.1-0.8,1.6-1.5
		c0,0.5,0.1,1,0.4,1.3s0.8,0.6,1.5,0.6c0.5,0,0.8-0.1,1.1-0.2c0.3-0.2,0.6-0.3,0.9-0.6l-0.2-0.4C214.4,32.8,214.3,32.9,214.1,33z
		 M211,31.3c-0.4,0.6-0.8,1-1.2,1.3s-0.9,0.4-1.3,0.4c-0.5,0-0.9-0.2-1.2-0.5s-0.5-0.8-0.5-1.5c0-0.7,0.2-1.3,0.5-1.6
		s0.8-0.7,1.2-0.9c0.5-0.2,1-0.4,1.4-0.6c0.5-0.2,0.8-0.4,1-0.8V31.3z"/>
	<path class="st0" d="M225.9,31.7v-5.8c0-0.7-0.1-1.3-0.2-1.8c-0.1-0.4-0.3-0.8-0.6-1.1c-0.2-0.3-0.6-0.5-0.9-0.6
		c-0.4-0.1-0.8-0.2-1.4-0.2c-0.7,0-1.4,0.2-2.1,0.6c-0.7,0.4-1.2,1.1-1.6,2.1v-2.6c-0.3,0.1-0.7,0.2-1.1,0.2c-0.4,0-0.8,0.1-1.2,0.1
		c-0.4,0-0.9,0-1.4-0.1V23c0.6,0,1.1,0.2,1.3,0.5s0.4,0.8,0.4,1.5v6.8c0,0.6-0.1,1-0.4,1.2s-0.7,0.3-1.3,0.3v0.5c0.2,0,0.6,0,1.1,0
		c0.5,0,1,0,1.5,0s0.9,0,1.4,0c0.5,0,0.8,0,1,0v-0.5c-0.5,0-0.9-0.1-1.1-0.3s-0.3-0.6-0.3-1.2v-4.8c0-1.1,0.3-2.1,0.8-2.8
		s1.3-1.1,2.2-1.1c0.5,0,0.9,0.1,1.2,0.4s0.4,0.5,0.5,0.9c0.1,0.4,0.1,0.8,0.1,1.2v6.3c0,0.6-0.1,1-0.3,1.2s-0.6,0.3-1.1,0.3v0.5
		c0.2,0,0.6,0,1,0c0.5,0,0.9,0,1.4,0s1,0,1.5,0s0.9,0,1.1,0v-0.5c-0.6,0-1-0.1-1.3-0.3C226,32.7,225.9,32.3,225.9,31.7z"/>
	<path class="st0" d="M239.2,32.9c-0.2-0.2-0.4-0.6-0.4-1.2v-5.8c0-0.7-0.1-1.3-0.2-1.8c-0.1-0.4-0.3-0.8-0.6-1.1
		c-0.2-0.3-0.6-0.5-0.9-0.6c-0.4-0.1-0.8-0.2-1.4-0.2c-0.7,0-1.4,0.2-2.1,0.6c-0.7,0.4-1.2,1.1-1.6,2.1v-2.6
		c-0.3,0.1-0.7,0.2-1.1,0.2c-0.4,0-0.8,0.1-1.2,0.1c-0.4,0-0.9,0-1.4-0.1V23c0.6,0,1.1,0.2,1.3,0.5s0.4,0.8,0.4,1.5v6.8
		c0,0.6-0.1,1-0.4,1.2s-0.7,0.3-1.3,0.3v0.5c0.2,0,0.6,0,1.1,0c0.5,0,1,0,1.5,0s0.9,0,1.4,0s0.8,0,1,0v-0.5c-0.5,0-0.9-0.1-1.1-0.3
		s-0.3-0.6-0.3-1.2v-4.8c0-1.1,0.3-2.1,0.8-2.8s1.3-1.1,2.2-1.1c0.5,0,0.9,0.1,1.2,0.4s0.4,0.5,0.5,0.9c0.1,0.4,0.1,0.8,0.1,1.2v6.3
		c0,0.6-0.1,1-0.3,1.2s-0.6,0.3-1.1,0.3v0.5c0.2,0,0.6,0,1,0s0.9,0,1.4,0s1,0,1.5,0s0.9,0,1.1,0v-0.5
		C239.9,33.3,239.5,33.2,239.2,32.9z"/>
</g>
<path class="st1" d="M118.3,22.1l-2.6,8.4l-3-9.2l-0.1-0.3l-0.1-0.4c-0.2-0.5-0.2-0.8-0.2-1.1c0-0.3,0.1-0.5,0.2-0.6
	c0.2-0.1,0.5-0.2,0.8-0.2v-0.4c-0.3,0-0.6,0-1,0c-0.4,0-0.9,0-1.4,0c-0.4,0-0.8,0-1.3,0s-0.8,0-1.1,0v0.4c0.2,0,0.5,0.1,0.8,0.3
	c0.3,0.2,0.5,0.5,0.7,1.1l0.5,1.5L111,23l3.8,11.1c0,0,0.1,0,0.1,0s0.1,0,0.1,0s0.1,0,0.1,0s0.1,0,0.1,0l3.5-11.2L118.3,22.1z"/>
<path class="st2" d="M127.9,18.2c-0.2,0-0.6,0-0.9,0c-0.4,0-0.8,0-1.2,0c-0.4,0-0.9,0-1.3,0v0.4c0.6,0,1.1,0.1,1.4,0.3
	c0.3,0.2,0.5,0.5,0.5,1s-0.1,1.1-0.4,1.9l-2.7,8.6l-3.2-9.9c-0.2-0.6-0.2-1-0.2-1.2s0.2-0.4,0.4-0.5c0.3-0.1,0.6-0.1,1.1-0.1v-0.4
	c-0.3,0-0.7,0-1.2,0c-0.5,0-1,0-1.6,0c-0.4,0-0.8,0-1.2,0s-0.7,0-1,0v0.4c0.2,0,0.4,0.1,0.7,0.3s0.4,0.5,0.6,1.1l0.6,1.8l0.3,0.8
	l3.8,11.4c0,0,0.1,0,0.1,0s0.1,0,0.1,0s0.1,0,0.1,0s0.1,0,0.1,0l4.2-13.5c0.2-0.7,0.5-1.2,0.8-1.4s0.7-0.4,0.9-0.5v-0.4
	C128.4,18.2,128.1,18.2,127.9,18.2z"/>
</svg>
