<?xml version="1.0" encoding="utf-8"?>
<!-- Generator: Adobe Illustrator 25.2.1, SVG Export Plug-In . SVG Version: 6.00 Build 0)  -->
<svg version="1.1" id="BACKGROUND" xmlns="http://www.w3.org/2000/svg" xmlns:xlink="http://www.w3.org/1999/xlink" x="0px" y="0px"
	 viewBox="0 0 523 309" style="enable-background:new 0 0 523 309;" xml:space="preserve">
<style type="text/css">
	.st0{fill:none;stroke:#B7B7B7;stroke-linecap:round;stroke-linejoin:round;stroke-miterlimit:10;}
	.st1{fill:none;stroke:#000000;stroke-width:2;stroke-linecap:round;stroke-linejoin:round;stroke-miterlimit:10;}
	.st2{fill:none;stroke:#A50404;stroke-width:2;stroke-linecap:round;stroke-linejoin:round;stroke-miterlimit:10;}
	.st3{fill:none;stroke:#478BBA;stroke-width:1.5;stroke-linecap:round;stroke-linejoin:round;stroke-miterlimit:10;}
</style>
<g>
	<path class="st0" d="M153.37,40.12h75.75l0.01-0.01c0.13-3.97-3.05-7.24-7-7.24c-0.7,0-1.38,0.11-2.02,0.3c0-0.1,0.02-0.2,0.02-0.3
		c0-6-4.87-10.87-10.87-10.87c-1.55,0-3.01,0.33-4.34,0.91c-1.67-6.01-7.16-10.42-13.7-10.42c-5.73,0-10.66,3.38-12.92,8.26
		c-0.4,0.86-1.43,1.25-2.31,0.89c-1.41-0.56-2.97-0.84-4.6-0.75c-5.15,0.28-9.5,4.3-10.17,9.42c-0.21,1.61-0.06,3.16,0.37,4.59
		c-0.78-0.41-1.66-0.64-2.6-0.64C155.79,34.24,153.22,36.89,153.37,40.12C153.36,40.11,153.36,40.11,153.37,40.12"/>
</g>
<g>
	<path class="st0" d="M284.38,62.86h75.75l0.01-0.01c0.13-3.97-3.05-7.24-7-7.24c-0.7,0-1.38,0.11-2.02,0.3c0-0.1,0.02-0.2,0.02-0.3
		c0-6-4.87-10.87-10.87-10.87c-1.55,0-3.01,0.33-4.34,0.91c-1.67-6.01-7.16-10.42-13.7-10.42c-5.73,0-10.66,3.38-12.92,8.26
		c-0.4,0.86-1.43,1.25-2.31,0.89c-1.41-0.56-2.97-0.84-4.6-0.75c-5.15,0.28-9.5,4.3-10.17,9.42c-0.21,1.61-0.06,3.16,0.37,4.59
		c-0.78-0.41-1.66-0.64-2.6-0.64C286.8,56.99,284.23,59.64,284.38,62.86C284.37,62.86,284.37,62.86,284.38,62.86"/>
</g>
<g>
	<path class="st1" d="M305.11,98.05c0,0,2.51-0.31,4.43,1.11c0.54,0.4,1.29,0.09,1.37-0.57c0.18-1.6,0.8-3.54,2.71-3.54"/>
	<path class="st1" d="M316.93,85.12c0,0,2.51-0.31,4.43,1.11c0.53,0.4,1.29,0.09,1.37-0.57c0.18-1.6,0.8-3.54,2.71-3.54"/>
	<path class="st1" d="M213.89,121.75c0,0,2.51-0.31,4.43,1.11c0.53,0.4,1.29,0.09,1.37-0.57c0.18-1.6,0.8-3.54,2.71-3.54"/>
	<path class="st1" d="M228.52,53.57c0,0,2.51-0.31,4.43,1.11c0.54,0.4,1.29,0.09,1.37-0.57c0.18-1.6,0.8-3.54,2.71-3.54"/>
</g>
<g>
	<g>
		<line class="st2" x1="89.89" y1="194.05" x2="89.89" y2="251.05"/>
		<polyline class="st2" points="79.81,184.18 79.81,124.3 80.37,120.55 80.37,76.31 80.83,73.31 80.83,24.94 87.22,24.94 
			87.22,73.31 87.69,76.31 87.69,120.55 88.24,124.3 88.24,184.27 		"/>
		<line class="st2" x1="80.16" y1="251.05" x2="80.16" y2="194.84"/>
		<line class="st2" x1="131.1" y1="191.06" x2="131.1" y2="251.05"/>
		<polyline class="st2" points="121.02,180.68 121.02,124.3 121.57,120.55 121.57,76.31 122.04,73.31 122.04,24.94 128.43,24.94 
			128.43,73.31 128.89,76.31 128.89,120.55 129.45,124.3 129.45,180.18 		"/>
		<line class="st2" x1="121.37" y1="251.05" x2="121.37" y2="191.96"/>
		<line class="st2" x1="87.22" y1="29.31" x2="122.04" y2="29.31"/>
		<path class="st2" d="M122.04,40.06c0,0-2.17-2.5-4.8-2.5s-12.61,0-12.61,0s-9.99,0-12.61,0s-4.8,2.5-4.8,2.5"/>
		<path class="st2" d="M87.22,61.12c0,0,2.17,2.5,4.8,2.5s12.61,0,12.61,0s9.99,0,12.61,0s4.8-2.5,4.8-2.5"/>
		<g>
			<line class="st2" x1="91.89" y1="32.68" x2="91.89" y2="34.18"/>
			<line class="st2" x1="95.49" y1="32.68" x2="95.49" y2="34.18"/>
			<line class="st2" x1="99.08" y1="32.68" x2="99.08" y2="34.18"/>
			<line class="st2" x1="102.67" y1="32.68" x2="102.67" y2="34.18"/>
			<line class="st2" x1="106.27" y1="32.68" x2="106.27" y2="34.18"/>
			<line class="st2" x1="109.86" y1="32.68" x2="109.86" y2="34.18"/>
			<line class="st2" x1="113.46" y1="32.68" x2="113.46" y2="34.18"/>
			<line class="st2" x1="117.05" y1="32.68" x2="117.05" y2="34.18"/>
		</g>
		<path class="st2" d="M121.57,74.59c-0.77-0.72-2.43-2.03-4.33-2.03c-2.62,0-12.61,0-12.61,0s-9.99,0-12.61,0
			c-1.9,0-3.56,1.31-4.33,2.03"/>
		<g>
			<line class="st2" x1="91.89" y1="67.68" x2="91.89" y2="69.18"/>
			<line class="st2" x1="95.49" y1="67.68" x2="95.49" y2="69.18"/>
			<line class="st2" x1="99.08" y1="67.68" x2="99.08" y2="69.18"/>
			<line class="st2" x1="102.67" y1="67.68" x2="102.67" y2="69.18"/>
			<line class="st2" x1="106.27" y1="67.68" x2="106.27" y2="69.18"/>
			<line class="st2" x1="109.86" y1="67.68" x2="109.86" y2="69.18"/>
			<line class="st2" x1="113.46" y1="67.68" x2="113.46" y2="69.18"/>
			<line class="st2" x1="117.05" y1="67.68" x2="117.05" y2="69.18"/>
		</g>
		<path class="st2" d="M87.69,96.8c0,0,1.71,2.5,4.33,2.5s12.61,0,12.61,0s9.99,0,12.61,0s4.33-2.5,4.33-2.5"/>
		<path class="st2" d="M121.57,110.27c-0.77-0.72-2.43-2.03-4.33-2.03c-2.62,0-12.61,0-12.61,0s-9.99,0-12.61,0
			c-1.9,0-3.56,1.31-4.33,2.03"/>
		<g>
			<line class="st2" x1="91.89" y1="103.37" x2="91.89" y2="104.87"/>
			<line class="st2" x1="95.49" y1="103.37" x2="95.49" y2="104.87"/>
			<line class="st2" x1="99.08" y1="103.37" x2="99.08" y2="104.87"/>
			<line class="st2" x1="102.67" y1="103.37" x2="102.67" y2="104.87"/>
			<line class="st2" x1="106.27" y1="103.37" x2="106.27" y2="104.87"/>
			<line class="st2" x1="109.86" y1="103.37" x2="109.86" y2="104.87"/>
			<line class="st2" x1="113.46" y1="103.37" x2="113.46" y2="104.87"/>
			<line class="st2" x1="117.05" y1="103.37" x2="117.05" y2="104.87"/>
		</g>
		<path class="st2" d="M88.24,140.88c0,0,1.15,2.5,3.77,2.5s12.61,0,12.61,0s9.99,0,12.61,0s3.77-2.5,3.77-2.5"/>
		<path class="st2" d="M120.55,154.34c-0.77-0.72-1.41-2.03-3.31-2.03c-2.62,0-12.61,0-12.61,0s-9.99,0-12.61,0
			c-1.9,0-2.77,1.31-3.54,2.03"/>
		<g>
			<line class="st2" x1="91.89" y1="147.44" x2="91.89" y2="148.94"/>
			<line class="st2" x1="95.49" y1="147.44" x2="95.49" y2="148.94"/>
			<line class="st2" x1="99.08" y1="147.44" x2="99.08" y2="148.94"/>
			<line class="st2" x1="102.67" y1="147.44" x2="102.67" y2="148.94"/>
			<line class="st2" x1="106.27" y1="147.44" x2="106.27" y2="148.94"/>
			<line class="st2" x1="109.86" y1="147.44" x2="109.86" y2="148.94"/>
			<line class="st2" x1="113.46" y1="147.44" x2="113.46" y2="148.94"/>
			<line class="st2" x1="117.05" y1="147.44" x2="117.05" y2="148.94"/>
		</g>
		<g>
			<line class="st2" x1="80.83" y1="73.31" x2="87.22" y2="73.31"/>
			<line class="st2" x1="122.71" y1="73.31" x2="128.43" y2="73.31"/>
			<line class="st2" x1="80.83" y1="120.55" x2="87.22" y2="120.55"/>
			<line class="st2" x1="122.04" y1="120.55" x2="128.43" y2="120.55"/>
		</g>
	</g>
	<g>
		<line class="st2" x1="435.24" y1="192.35" x2="435.24" y2="251.05"/>
		<polyline class="st2" points="442.33,183.06 442.33,124.3 441.77,120.55 441.77,76.31 441.31,73.31 441.31,24.94 434.91,24.94 
			434.91,73.31 434.45,76.31 434.45,120.55 433.89,124.3 433.89,182.31 		"/>
		<line class="st2" x1="444.98" y1="251.05" x2="444.98" y2="193.22"/>
		<line class="st2" x1="394.04" y1="189.26" x2="394.04" y2="251.05"/>
		<polyline class="st2" points="401.12,179.63 401.12,124.3 400.56,120.55 400.56,76.31 400.1,73.31 400.1,24.94 393.71,24.94 
			393.71,73.31 393.24,76.31 393.24,120.55 392.69,124.3 392.69,179.25 		"/>
		<line class="st2" x1="403.77" y1="251.05" x2="403.77" y2="189.9"/>
		<line class="st2" x1="434.91" y1="29.31" x2="400.1" y2="29.31"/>
		<path class="st2" d="M400.1,40.06c0,0,2.17-2.5,4.8-2.5s12.61,0,12.61,0s9.99,0,12.61,0s4.8,2.5,4.8,2.5"/>
		<path class="st2" d="M434.91,61.12c0,0-2.17,2.5-4.8,2.5s-12.61,0-12.61,0s-9.99,0-12.61,0s-4.8-2.5-4.8-2.5"/>
		<g>
			<line class="st2" x1="430.24" y1="32.68" x2="430.24" y2="34.18"/>
			<line class="st2" x1="426.65" y1="32.68" x2="426.65" y2="34.18"/>
			<line class="st2" x1="423.06" y1="32.68" x2="423.06" y2="34.18"/>
			<line class="st2" x1="419.46" y1="32.68" x2="419.46" y2="34.18"/>
			<line class="st2" x1="415.87" y1="32.68" x2="415.87" y2="34.18"/>
			<line class="st2" x1="412.28" y1="32.68" x2="412.28" y2="34.18"/>
			<line class="st2" x1="408.68" y1="32.68" x2="408.68" y2="34.18"/>
			<line class="st2" x1="405.09" y1="32.68" x2="405.09" y2="34.18"/>
		</g>
		<path class="st2" d="M400.56,74.59c0.77-0.72,2.43-2.03,4.33-2.03c2.62,0,12.61,0,12.61,0s9.99,0,12.61,0
			c1.9,0,3.56,1.31,4.33,2.03"/>
		<g>
			<line class="st2" x1="430.24" y1="67.68" x2="430.24" y2="69.18"/>
			<line class="st2" x1="426.65" y1="67.68" x2="426.65" y2="69.18"/>
			<line class="st2" x1="423.06" y1="67.68" x2="423.06" y2="69.18"/>
			<line class="st2" x1="419.46" y1="67.68" x2="419.46" y2="69.18"/>
			<line class="st2" x1="415.87" y1="67.68" x2="415.87" y2="69.18"/>
			<line class="st2" x1="412.28" y1="67.68" x2="412.28" y2="69.18"/>
			<line class="st2" x1="408.68" y1="67.68" x2="408.68" y2="69.18"/>
			<line class="st2" x1="405.09" y1="67.68" x2="405.09" y2="69.18"/>
		</g>
		<path class="st2" d="M434.45,96.8c0,0-1.71,2.5-4.33,2.5s-12.61,0-12.61,0s-9.99,0-12.61,0s-4.33-2.5-4.33-2.5"/>
		<path class="st2" d="M400.56,110.27c0.77-0.72,2.43-2.03,4.33-2.03c2.62,0,12.61,0,12.61,0s9.99,0,12.61,0
			c1.9,0,3.56,1.31,4.33,2.03"/>
		<g>
			<line class="st2" x1="430.24" y1="103.37" x2="430.24" y2="104.87"/>
			<line class="st2" x1="426.65" y1="103.37" x2="426.65" y2="104.87"/>
			<line class="st2" x1="423.06" y1="103.37" x2="423.06" y2="104.87"/>
			<line class="st2" x1="419.46" y1="103.37" x2="419.46" y2="104.87"/>
			<line class="st2" x1="415.87" y1="103.37" x2="415.87" y2="104.87"/>
			<line class="st2" x1="412.28" y1="103.37" x2="412.28" y2="104.87"/>
			<line class="st2" x1="408.68" y1="103.37" x2="408.68" y2="104.87"/>
			<line class="st2" x1="405.09" y1="103.37" x2="405.09" y2="104.87"/>
		</g>
		<path class="st2" d="M433.89,140.88c0,0-1.15,2.5-3.77,2.5s-12.61,0-12.61,0s-9.99,0-12.61,0s-3.54-2.5-3.54-2.5"/>
		<path class="st2" d="M401.35,154.34c0.77-0.72,1.65-2.03,3.54-2.03c2.62,0,12.61,0,12.61,0s9.99,0,12.61,0c1.9,0,3,1.31,3.77,2.03
			"/>
		<g>
			<line class="st2" x1="430.24" y1="147.44" x2="430.24" y2="148.94"/>
			<line class="st2" x1="426.65" y1="147.44" x2="426.65" y2="148.94"/>
			<line class="st2" x1="423.06" y1="147.44" x2="423.06" y2="148.94"/>
			<line class="st2" x1="419.46" y1="147.44" x2="419.46" y2="148.94"/>
			<line class="st2" x1="415.87" y1="147.44" x2="415.87" y2="148.94"/>
			<line class="st2" x1="412.28" y1="147.44" x2="412.28" y2="148.94"/>
			<line class="st2" x1="408.68" y1="147.44" x2="408.68" y2="148.94"/>
			<line class="st2" x1="405.09" y1="147.44" x2="405.09" y2="148.94"/>
		</g>
		<g>
			<line class="st2" x1="441.31" y1="73.31" x2="434.91" y2="73.31"/>
			<line class="st2" x1="399.43" y1="73.31" x2="393.71" y2="73.31"/>
			<line class="st2" x1="441.31" y1="120.55" x2="434.91" y2="120.55"/>
			<line class="st2" x1="400.1" y1="120.55" x2="393.71" y2="120.55"/>
		</g>
	</g>
	<path class="st2" d="M20.71,200.35c0,0,133.43-14.67,261.59-14.67s224.84,14.67,224.84,14.67"/>
	<path class="st2" d="M20.71,194.31c0,0,133.43-14.67,261.59-14.67s224.84,14.67,224.84,14.67"/>
	<path class="st2" d="M20.71,190.44c0,0,133.43-14.67,261.59-14.67s224.84,14.67,224.84,14.67"/>
	<path class="st2" d="M128.43,40.06c0,0,57.26,135.71,127.47,135.71c78.2,7.34,137.81-136.34,137.81-136.34"/>
	<path class="st2" d="M80.83,48.89c0,0-12.12,88.8-60.12,136.79"/>
	<path class="st2" d="M441.31,34.18c0,0,10.89,119.15,65.98,151.5"/>
	<g>
		<line class="st2" x1="138.89" y1="62.08" x2="138.89" y2="180.68"/>
		<line class="st2" x1="149.98" y1="82.85" x2="149.98" y2="179.63"/>
		<line class="st2" x1="161.01" y1="100.68" x2="161.01" y2="179.63"/>
		<line class="st2" x1="171.13" y1="115.46" x2="171.13" y2="178.84"/>
		<line class="st2" x1="181.56" y1="129.34" x2="181.56" y2="178.32"/>
		<line class="st2" x1="191.56" y1="140.48" x2="191.56" y2="177.87"/>
		<line class="st2" x1="200.92" y1="149.8" x2="200.92" y2="177.48"/>
		<line class="st2" x1="209.62" y1="157.65" x2="209.62" y2="177.15"/>
		<line class="st2" x1="218.75" y1="163.68" x2="218.75" y2="176.84"/>
		<line class="st2" x1="227.39" y1="168.57" x2="227.39" y2="175.76"/>
		<line class="st2" x1="69.9" y1="95.67" x2="69.9" y2="185.77"/>
		<line class="st2" x1="59.09" y1="125.5" x2="59.09" y2="186.7"/>
		<line class="st2" x1="47.88" y1="148.65" x2="47.88" y2="187.74"/>
		<line class="st2" x1="37.13" y1="166" x2="37.13" y2="188.74"/>
	</g>
	<g>
		<line class="st2" x1="383.21" y1="61.69" x2="383.21" y2="178.69"/>
		<line class="st2" x1="372.12" y1="82.85" x2="372.12" y2="178.09"/>
		<line class="st2" x1="361.09" y1="100.87" x2="361.09" y2="177.56"/>
		<line class="st2" x1="350.97" y1="115.07" x2="350.97" y2="177.13"/>
		<line class="st2" x1="340.54" y1="128.43" x2="340.54" y2="176.75"/>
		<line class="st2" x1="330.54" y1="139.47" x2="330.54" y2="176.44"/>
		<line class="st2" x1="321.18" y1="148.94" x2="321.18" y2="176.21"/>
		<line class="st2" x1="312.48" y1="156.53" x2="312.48" y2="176.02"/>
		<line class="st2" x1="303.35" y1="163.21" x2="303.35" y2="175.76"/>
		<line class="st2" x1="294.71" y1="168.27" x2="294.71" y2="175.76"/>
		<line class="st2" x1="452.2" y1="93.05" x2="452.2" y2="183.98"/>
		<line class="st2" x1="463.01" y1="125.58" x2="463.01" y2="185.07"/>
		<line class="st2" x1="474.21" y1="149.21" x2="474.21" y2="186.28"/>
		<line class="st2" x1="484.81" y1="165.25" x2="484.81" y2="187.51"/>
	</g>
</g>
<g>
	<path class="st3" d="M469.55,269.7c0,0-4.02,0.81-7.23-3.07c-0.5-0.61-1.51-0.61-2.01,0c-3.2,3.89-7.23,3.07-7.23,3.07
		s-4.02,0.81-7.23-3.07c-0.5-0.61-1.51-0.61-2.01,0c-3.2,3.89-7.23,3.07-7.23,3.07s-4.02,0.81-7.23-3.07c-0.5-0.61-1.51-0.61-2.01,0
		c-3.2,3.89-7.23,3.07-7.23,3.07"/>
	<path class="st3" d="M514.08,228.67c0,0-4.02,0.81-7.23-3.07c-0.5-0.61-1.51-0.61-2.01,0c-3.2,3.89-7.23,3.07-7.23,3.07
		s-4.02,0.81-7.23-3.07c-0.5-0.61-1.51-0.61-2.01,0c-3.2,3.89-7.23,3.07-7.23,3.07s-4.02,0.81-7.23-3.07c-0.5-0.61-1.51-0.61-2.01,0
		c-3.2,3.89-7.23,3.07-7.23,3.07"/>
	<path class="st3" d="M58.95,285.58c0,0,4.02,0.81,7.23-3.07c0.5-0.61,1.51-0.61,2.01,0c3.2,3.89,7.23,3.07,7.23,3.07
		s4.02,0.81,7.23-3.07c0.5-0.61,1.51-0.61,2.01,0c3.2,3.89,7.23,3.07,7.23,3.07s4.02,0.81,7.23-3.07c0.5-0.61,1.51-0.61,2.01,0
		c3.2,3.89,7.23,3.07,7.23,3.07"/>
	<path class="st3" d="M15.6,232.04c0,0,4.02,0.81,7.23-3.07c0.5-0.61,1.51-0.61,2.01,0c3.2,3.89,7.23,3.07,7.23,3.07
		s4.02,0.81,7.23-3.07c0.5-0.61,1.51-0.61,2.01,0c3.2,3.89,7.23,3.07,7.23,3.07s4.02,0.81,7.23-3.07c0.5-0.61,1.51-0.61,2.01,0
		c3.2,3.89,7.23,3.07,7.23,3.07"/>
	<path class="st3" d="M175.53,271.67c0,0-4.02,0.81-7.23-3.07c-0.5-0.61-1.51-0.61-2.01,0c-3.2,3.89-7.23,3.07-7.23,3.07
		s-4.02,0.81-7.23-3.07c-0.5-0.61-1.51-0.61-2.01,0c-3.2,3.89-7.23,3.07-7.23,3.07s-4.02,0.81-7.23-3.07c-0.5-0.61-1.51-0.61-2.01,0
		c-3.2,3.89-7.23,3.07-7.23,3.07s-4.02,0.81-7.23-3.07c-0.5-0.61-1.51-0.61-2.01,0c-3.2,3.89-7.23,3.07-7.23,3.07
		s-4.02,0.81-7.23-3.07c-0.5-0.61-1.51-0.61-2.01,0c-3.2,3.89-7.23,3.07-7.23,3.07"/>
	<path class="st3" d="M241.64,254.8c0,0-4.02,0.81-7.23-3.07c-0.5-0.61-1.51-0.61-2.01,0c-3.2,3.89-7.23,3.07-7.23,3.07
		s-4.02,0.81-7.23-3.07c-0.5-0.61-1.51-0.61-2.01,0c-3.2,3.89-7.23,3.07-7.23,3.07s-4.02,0.81-7.23-3.07c-0.5-0.61-1.51-0.61-2.01,0
		c-3.2,3.89-7.23,3.07-7.23,3.07s-4.02,0.81-7.23-3.07c-0.5-0.61-1.51-0.61-2.01,0c-3.2,3.89-7.23,3.07-7.23,3.07
		s-4.02,0.81-7.23-3.07c-0.5-0.61-1.51-0.61-2.01,0c-3.2,3.89-7.23,3.07-7.23,3.07"/>
	<path class="st3" d="M300.25,267.71c0,0,4.02,0.81,7.23-3.07c0.5-0.61,1.51-0.61,2.01,0c3.2,3.89,7.23,3.07,7.23,3.07
		s4.02,0.81,7.23-3.07c0.5-0.61,1.51-0.61,2.01,0c3.2,3.89,7.23,3.07,7.23,3.07s4.02,0.81,7.23-3.07c0.5-0.61,1.51-0.61,2.01,0
		c3.2,3.89,7.23,3.07,7.23,3.07"/>
	<path class="st3" d="M151.45,238.77c0,0,4.02,0.81,7.23-3.07c0.5-0.61,1.51-0.61,2.01,0c3.2,3.89,7.23,3.07,7.23,3.07
		s4.02,0.81,7.23-3.07c0.5-0.61,1.51-0.61,2.01,0c3.2,3.89,7.23,3.07,7.23,3.07s4.02,0.81,7.23-3.07c0.5-0.61,1.51-0.61,2.01,0
		c3.2,3.89,7.23,3.07,7.23,3.07"/>
	<path class="st3" d="M377.49,210.92c0,0-4.02,0.81-7.23-3.07c-0.5-0.61-1.51-0.61-2.01,0c-3.2,3.89-7.23,3.07-7.23,3.07
		s-4.02,0.81-7.23-3.07c-0.5-0.61-1.51-0.61-2.01,0c-3.2,3.89-7.23,3.07-7.23,3.07s-4.02,0.81-7.23-3.07c-0.5-0.61-1.51-0.61-2.01,0
		c-3.2,3.89-7.23,3.07-7.23,3.07"/>
	<path class="st3" d="M328.23,253.95c0,0-4.02,0.81-7.23-3.07c-0.5-0.61-1.51-0.61-2.01,0c-3.2,3.89-7.23,3.07-7.23,3.07
		s-4.02,0.81-7.23-3.07c-0.5-0.61-1.51-0.61-2.01,0c-3.2,3.89-7.23,3.07-7.23,3.07s-4.02,0.81-7.23-3.07c-0.5-0.61-1.51-0.61-2.01,0
		c-3.2,3.89-7.23,3.07-7.23,3.07"/>
	<path class="st3" d="M355.18,282.9c0,0,4.02,0.81,7.23-3.07c0.5-0.61,1.51-0.61,2.01,0c3.2,3.89,7.23,3.07,7.23,3.07
		s4.02,0.81,7.23-3.07c0.5-0.61,1.51-0.61,2.01,0c3.2,3.89,7.23,3.07,7.23,3.07s4.02,0.81,7.23-3.07c0.5-0.61,1.51-0.61,2.01,0
		c3.2,3.89,7.23,3.07,7.23,3.07s4.02,0.81,7.23-3.07c0.5-0.61,1.51-0.61,2.01,0c3.2,3.89,7.23,3.07,7.23,3.07s4.02,0.81,7.23-3.07
		c0.5-0.61,1.51-0.61,2.01,0c3.2,3.89,7.23,3.07,7.23,3.07"/>
	<path class="st3" d="M193.21,207.55c0,0,4.02,0.81,7.23-3.07c0.5-0.61,1.51-0.61,2.01,0c3.2,3.89,7.23,3.07,7.23,3.07
		s4.02,0.81,7.23-3.07c0.5-0.61,1.51-0.61,2.01,0c3.2,3.89,7.23,3.07,7.23,3.07s4.02,0.81,7.23-3.07c0.5-0.61,1.51-0.61,2.01,0
		c3.2,3.89,7.23,3.07,7.23,3.07s4.02,0.81,7.23-3.07c0.5-0.61,1.51-0.61,2.01,0c3.2,3.89,7.23,3.07,7.23,3.07s4.02,0.81,7.23-3.07
		c0.5-0.61,1.51-0.61,2.01,0c3.2,3.89,7.23,3.07,7.23,3.07"/>
	<path class="st3" d="M292.72,226.41c0,0,4.02,0.81,7.23-3.07c0.5-0.61,1.51-0.61,2.01,0c3.2,3.89,7.23,3.07,7.23,3.07
		s4.02,0.81,7.23-3.07c0.5-0.61,1.51-0.61,2.01,0c3.2,3.89,7.23,3.07,7.23,3.07s4.02,0.81,7.23-3.07c0.5-0.61,1.51-0.61,2.01,0
		c3.2,3.89,7.23,3.07,7.23,3.07s4.02,0.81,7.23-3.07c0.5-0.61,1.51-0.61,2.01,0c3.2,3.89,7.23,3.07,7.23,3.07s4.02,0.81,7.23-3.07
		c0.5-0.61,1.51-0.61,2.01,0c3.2,3.89,7.23,3.07,7.23,3.07"/>
	<path class="st3" d="M217.56,287.12c0,0,4.02,0.81,7.23-3.07c0.5-0.61,1.51-0.61,2.01,0c3.2,3.89,7.23,3.07,7.23,3.07
		s4.02,0.81,7.23-3.07c0.5-0.61,1.51-0.61,2.01,0c3.2,3.89,7.23,3.07,7.23,3.07s4.02,0.81,7.23-3.07c0.5-0.61,1.51-0.61,2.01,0
		c3.2,3.89,7.23,3.07,7.23,3.07"/>
</g>
<g>
	<path class="st0" d="M217.88,100.01h54.37l0.01-0.01c0.09-2.85-2.19-5.2-5.02-5.2c-0.5,0-0.99,0.08-1.45,0.22
		c0-0.07,0.01-0.14,0.01-0.22c0-4.31-3.5-7.8-7.8-7.8c-1.11,0-2.16,0.24-3.12,0.65c-1.2-4.31-5.14-7.48-9.83-7.48
		c-4.11,0-7.65,2.43-9.27,5.93c-0.29,0.62-1.03,0.9-1.66,0.64c-1.01-0.4-2.13-0.6-3.3-0.54c-3.7,0.2-6.82,3.09-7.3,6.76
		c-0.15,1.16-0.04,2.27,0.27,3.29c-0.56-0.29-1.19-0.46-1.87-0.46C219.62,95.79,217.78,97.69,217.88,100.01
		C217.88,100,217.88,100,217.88,100.01"/>
</g>
</svg>
