<?xml version="1.0" encoding="utf-8"?>
<!-- Generator: Adobe Illustrator 25.4.1, SVG Export Plug-In . SVG Version: 6.00 Build 0)  -->
<svg version="1.1" id="BACKGROUND" xmlns="http://www.w3.org/2000/svg" xmlns:xlink="http://www.w3.org/1999/xlink" x="0px" y="0px"
	 viewBox="0 0 507 379" style="enable-background:new 0 0 507 379;" xml:space="preserve">
<style type="text/css">
	.st0{fill:none;stroke:#B7B7B7;stroke-linecap:round;stroke-linejoin:round;stroke-miterlimit:10;}
	.st1{fill:none;stroke:#A50404;stroke-linecap:round;stroke-linejoin:round;stroke-miterlimit:10;}
</style>
<g>
	<path class="st0" d="M22.4,58.2h75.8l0,0c0.1-4-3.1-7.2-7-7.2c-0.7,0-1.4,0.1-2,0.3c0-0.1,0-0.2,0-0.3c0-6-4.9-10.9-10.9-10.9
		c-1.6,0-3,0.3-4.3,0.9c-1.7-6-7.2-10.4-13.7-10.4c-5.7,0-10.7,3.4-12.9,8.3c-0.4,0.9-1.4,1.2-2.3,0.9c-1.4-0.6-3-0.8-4.6-0.8
		c-5.1,0.3-9.5,4.3-10.2,9.4c-0.2,1.6-0.1,3.2,0.4,4.6c-0.8-0.4-1.7-0.6-2.6-0.6C24.8,52.3,22.2,55,22.4,58.2L22.4,58.2"/>
</g>
<g>
	<g>
		<line class="st1" x1="144.1" y1="346.1" x2="144.1" y2="381.9"/>
		<polyline class="st1" points="137.8,339.9 137.8,302.3 138.2,299.9 138.2,272.1 138.4,270.2 138.4,239.8 142.5,239.8 142.5,270.2 
			142.8,272.1 142.8,299.9 143.1,302.3 143.1,339.9 		"/>
		<line class="st1" x1="138.1" y1="381.9" x2="138.1" y2="346.5"/>
		<line class="st1" x1="170" y1="344.2" x2="170" y2="381.9"/>
		<polyline class="st1" points="163.7,337.7 163.7,302.3 164.1,299.9 164.1,272.1 164.4,270.2 164.4,239.8 168.3,239.8 168.3,270.2 
			168.7,272.1 168.7,299.9 168.9,302.3 168.9,337.4 		"/>
		<line class="st1" x1="164" y1="381.9" x2="164" y2="344.8"/>
		<line class="st1" x1="142.5" y1="242.6" x2="164.4" y2="242.6"/>
		<path class="st1" d="M164.4,249.3c0,0-1.4-1.5-3-1.5c-1.6,0-7.9,0-7.9,0s-6.3,0-7.9,0s-3,1.5-3,1.5"/>
		<path class="st1" d="M142.5,262.6c0,0,1.4,1.5,3,1.5s7.9,0,7.9,0s6.3,0,7.9,0c1.6,0,3-1.5,3-1.5"/>
		<g>
			<line class="st1" x1="145.4" y1="244.7" x2="145.4" y2="245.7"/>
			<line class="st1" x1="147.7" y1="244.7" x2="147.7" y2="245.7"/>
			<line class="st1" x1="150" y1="244.7" x2="150" y2="245.7"/>
			<line class="st1" x1="152.2" y1="244.7" x2="152.2" y2="245.7"/>
			<line class="st1" x1="154.5" y1="244.7" x2="154.5" y2="245.7"/>
			<line class="st1" x1="156.7" y1="244.7" x2="156.7" y2="245.7"/>
			<line class="st1" x1="159" y1="244.7" x2="159" y2="245.7"/>
			<line class="st1" x1="161.3" y1="244.7" x2="161.3" y2="245.7"/>
		</g>
		<path class="st1" d="M164.1,271c-0.5-0.4-1.5-1.3-2.7-1.3c-1.6,0-7.9,0-7.9,0s-6.3,0-7.9,0c-1.2,0-2.3,0.8-2.7,1.3"/>
		<g>
			<line class="st1" x1="145.4" y1="266.7" x2="145.4" y2="267.6"/>
			<line class="st1" x1="147.7" y1="266.7" x2="147.7" y2="267.6"/>
			<line class="st1" x1="150" y1="266.7" x2="150" y2="267.6"/>
			<line class="st1" x1="152.2" y1="266.7" x2="152.2" y2="267.6"/>
			<line class="st1" x1="154.5" y1="266.7" x2="154.5" y2="267.6"/>
			<line class="st1" x1="156.7" y1="266.7" x2="156.7" y2="267.6"/>
			<line class="st1" x1="159" y1="266.7" x2="159" y2="267.6"/>
			<line class="st1" x1="161.3" y1="266.7" x2="161.3" y2="267.6"/>
		</g>
		<path class="st1" d="M142.8,285c0,0,1.1,1.5,2.7,1.5s7.9,0,7.9,0s6.3,0,7.9,0c1.6,0,2.7-1.5,2.7-1.5"/>
		<path class="st1" d="M164.1,293.4c-0.5-0.4-1.5-1.3-2.7-1.3c-1.6,0-7.9,0-7.9,0s-6.3,0-7.9,0c-1.2,0-2.3,0.8-2.7,1.3"/>
		<g>
			<line class="st1" x1="145.4" y1="289.1" x2="145.4" y2="290.1"/>
			<line class="st1" x1="147.7" y1="289.1" x2="147.7" y2="290.1"/>
			<line class="st1" x1="150" y1="289.1" x2="150" y2="290.1"/>
			<line class="st1" x1="152.2" y1="289.1" x2="152.2" y2="290.1"/>
			<line class="st1" x1="154.5" y1="289.1" x2="154.5" y2="290.1"/>
			<line class="st1" x1="156.7" y1="289.1" x2="156.7" y2="290.1"/>
			<line class="st1" x1="159" y1="289.1" x2="159" y2="290.1"/>
			<line class="st1" x1="161.3" y1="289.1" x2="161.3" y2="290.1"/>
		</g>
		<path class="st1" d="M143.1,312.6c0,0,0.8,1.5,2.4,1.5c1.6,0,7.9,0,7.9,0s6.3,0,7.9,0c1.6,0,2.4-1.5,2.4-1.5"/>
		<path class="st1" d="M163.4,321.1c-0.5-0.4-0.8-1.3-2-1.3c-1.6,0-7.9,0-7.9,0s-6.3,0-7.9,0c-1.2,0-1.8,0.8-2.2,1.3"/>
		<g>
			<line class="st1" x1="145.4" y1="316.8" x2="145.4" y2="317.7"/>
			<line class="st1" x1="147.7" y1="316.8" x2="147.7" y2="317.7"/>
			<line class="st1" x1="150" y1="316.8" x2="150" y2="317.7"/>
			<line class="st1" x1="152.2" y1="316.8" x2="152.2" y2="317.7"/>
			<line class="st1" x1="154.5" y1="316.8" x2="154.5" y2="317.7"/>
			<line class="st1" x1="156.7" y1="316.8" x2="156.7" y2="317.7"/>
			<line class="st1" x1="159" y1="316.8" x2="159" y2="317.7"/>
			<line class="st1" x1="161.3" y1="316.8" x2="161.3" y2="317.7"/>
		</g>
		<g>
			<line class="st1" x1="138.4" y1="270.2" x2="142.5" y2="270.2"/>
			<line class="st1" x1="164.8" y1="270.2" x2="168.3" y2="270.2"/>
			<line class="st1" x1="138.4" y1="299.9" x2="142.5" y2="299.9"/>
			<line class="st1" x1="164.4" y1="299.9" x2="168.3" y2="299.9"/>
		</g>
	</g>
	<g>
		<line class="st1" x1="361.1" y1="345" x2="361.1" y2="381.9"/>
		<polyline class="st1" points="365.6,339.2 365.6,302.3 365.2,299.9 365.2,272.1 364.9,270.2 364.9,239.8 360.8,239.8 360.8,270.2 
			360.7,272.1 360.7,299.9 360.2,302.3 360.2,338.7 		"/>
		<line class="st1" x1="367.2" y1="381.9" x2="367.2" y2="345.5"/>
		<line class="st1" x1="335.2" y1="343.2" x2="335.2" y2="381.9"/>
		<polyline class="st1" points="339.7,337 339.7,302.3 339.3,299.9 339.3,272.1 339,270.2 339,239.8 335,239.8 335,270.2 
			334.7,272.1 334.7,299.9 334.4,302.3 334.4,336.7 		"/>
		<line class="st1" x1="341.4" y1="381.9" x2="341.4" y2="343.5"/>
		<line class="st1" x1="360.8" y1="242.6" x2="339" y2="242.6"/>
		<path class="st1" d="M339,249.3c0,0,1.4-1.5,3-1.5c1.6,0,7.9,0,7.9,0s6.3,0,7.9,0s3,1.5,3,1.5"/>
		<path class="st1" d="M360.8,262.6c0,0-1.4,1.5-3,1.5s-7.9,0-7.9,0s-6.3,0-7.9,0c-1.6,0-3-1.5-3-1.5"/>
		<g>
			<line class="st1" x1="358" y1="244.7" x2="358" y2="245.7"/>
			<line class="st1" x1="355.7" y1="244.7" x2="355.7" y2="245.7"/>
			<line class="st1" x1="353.4" y1="244.7" x2="353.4" y2="245.7"/>
			<line class="st1" x1="351.2" y1="244.7" x2="351.2" y2="245.7"/>
			<line class="st1" x1="348.9" y1="244.7" x2="348.9" y2="245.7"/>
			<line class="st1" x1="346.7" y1="244.7" x2="346.7" y2="245.7"/>
			<line class="st1" x1="344.4" y1="244.7" x2="344.4" y2="245.7"/>
			<line class="st1" x1="342.1" y1="244.7" x2="342.1" y2="245.7"/>
		</g>
		<path class="st1" d="M339.3,271c0.5-0.4,1.5-1.3,2.7-1.3c1.6,0,7.9,0,7.9,0s6.3,0,7.9,0c1.2,0,2.3,0.8,2.7,1.3"/>
		<g>
			<line class="st1" x1="358" y1="266.7" x2="358" y2="267.6"/>
			<line class="st1" x1="355.7" y1="266.7" x2="355.7" y2="267.6"/>
			<line class="st1" x1="353.4" y1="266.7" x2="353.4" y2="267.6"/>
			<line class="st1" x1="351.2" y1="266.7" x2="351.2" y2="267.6"/>
			<line class="st1" x1="348.9" y1="266.7" x2="348.9" y2="267.6"/>
			<line class="st1" x1="346.7" y1="266.7" x2="346.7" y2="267.6"/>
			<line class="st1" x1="344.4" y1="266.7" x2="344.4" y2="267.6"/>
			<line class="st1" x1="342.1" y1="266.7" x2="342.1" y2="267.6"/>
		</g>
		<path class="st1" d="M360.7,285c0,0-1.1,1.5-2.7,1.5s-7.9,0-7.9,0s-6.3,0-7.9,0c-1.6,0-2.7-1.5-2.7-1.5"/>
		<path class="st1" d="M339.3,293.4c0.5-0.4,1.5-1.3,2.7-1.3c1.6,0,7.9,0,7.9,0s6.3,0,7.9,0c1.2,0,2.3,0.8,2.7,1.3"/>
		<g>
			<line class="st1" x1="358" y1="289.1" x2="358" y2="290.1"/>
			<line class="st1" x1="355.7" y1="289.1" x2="355.7" y2="290.1"/>
			<line class="st1" x1="353.4" y1="289.1" x2="353.4" y2="290.1"/>
			<line class="st1" x1="351.2" y1="289.1" x2="351.2" y2="290.1"/>
			<line class="st1" x1="348.9" y1="289.1" x2="348.9" y2="290.1"/>
			<line class="st1" x1="346.7" y1="289.1" x2="346.7" y2="290.1"/>
			<line class="st1" x1="344.4" y1="289.1" x2="344.4" y2="290.1"/>
			<line class="st1" x1="342.1" y1="289.1" x2="342.1" y2="290.1"/>
		</g>
		<path class="st1" d="M360.2,312.6c0,0-0.7,1.5-2.4,1.5c-1.7,0-7.9,0-7.9,0s-6.3,0-7.9,0c-1.6,0-2.2-1.5-2.2-1.5"/>
		<path class="st1" d="M339.8,321.1c0.5-0.4,1-1.3,2.2-1.3c1.6,0,7.9,0,7.9,0s6.3,0,7.9,0c1.2,0,1.9,0.8,2.4,1.3"/>
		<g>
			<line class="st1" x1="358" y1="316.8" x2="358" y2="317.7"/>
			<line class="st1" x1="355.7" y1="316.8" x2="355.7" y2="317.7"/>
			<line class="st1" x1="353.4" y1="316.8" x2="353.4" y2="317.7"/>
			<line class="st1" x1="351.2" y1="316.8" x2="351.2" y2="317.7"/>
			<line class="st1" x1="348.9" y1="316.8" x2="348.9" y2="317.7"/>
			<line class="st1" x1="346.7" y1="316.8" x2="346.7" y2="317.7"/>
			<line class="st1" x1="344.4" y1="316.8" x2="344.4" y2="317.7"/>
			<line class="st1" x1="342.1" y1="316.8" x2="342.1" y2="317.7"/>
		</g>
		<g>
			<line class="st1" x1="364.9" y1="270.2" x2="360.8" y2="270.2"/>
			<line class="st1" x1="338.6" y1="270.2" x2="335" y2="270.2"/>
			<line class="st1" x1="364.9" y1="299.9" x2="360.8" y2="299.9"/>
			<line class="st1" x1="339" y1="299.9" x2="335" y2="299.9"/>
		</g>
	</g>
	<path class="st1" d="M100.7,350.1c0,0,83.8-9.3,164.4-9.3s141.2,9.3,141.2,9.3"/>
	<path class="st1" d="M100.7,346.3c0,0,83.8-9.3,164.4-9.3s141.3,9.3,141.3,9.3"/>
	<path class="st1" d="M100.7,343.7c0,0,83.8-9.3,164.4-9.3s141.3,9.3,141.3,9.3"/>
	<path class="st1" d="M168.3,249.3c0,0,36,85.2,80.2,85.2C297.6,339.1,335,249,335,249"/>
	<path class="st1" d="M138.4,254.9c0,0-7.7,55.7-37.8,85.9"/>
	<path class="st1" d="M364.9,245.7c0,0,6.8,74.9,41.5,95.2"/>
	<g>
		<line class="st1" x1="175" y1="263.2" x2="175" y2="337.7"/>
		<line class="st1" x1="182" y1="276.2" x2="182" y2="337"/>
		<line class="st1" x1="188.8" y1="287.4" x2="188.8" y2="337"/>
		<line class="st1" x1="195.1" y1="296.7" x2="195.1" y2="336.5"/>
		<line class="st1" x1="201.7" y1="305.4" x2="201.7" y2="336.2"/>
		<line class="st1" x1="208" y1="312.5" x2="208" y2="335.9"/>
		<line class="st1" x1="213.9" y1="318.3" x2="213.9" y2="335.7"/>
		<line class="st1" x1="219.3" y1="323.2" x2="219.3" y2="335.4"/>
		<line class="st1" x1="225.1" y1="327" x2="225.1" y2="335.2"/>
		<line class="st1" x1="230.5" y1="330.1" x2="230.5" y2="334.6"/>
		<line class="st1" x1="131.6" y1="284.2" x2="131.6" y2="340.9"/>
		<line class="st1" x1="124.8" y1="302.9" x2="124.8" y2="341.5"/>
		<line class="st1" x1="117.8" y1="317.5" x2="117.8" y2="342.1"/>
		<line class="st1" x1="111" y1="328.4" x2="111" y2="342.7"/>
	</g>
	<g>
		<line class="st1" x1="328.5" y1="262.9" x2="328.5" y2="336.4"/>
		<line class="st1" x1="321.5" y1="276.2" x2="321.5" y2="336.1"/>
		<line class="st1" x1="314.5" y1="287.6" x2="314.5" y2="335.7"/>
		<line class="st1" x1="308.2" y1="296.5" x2="308.2" y2="335.4"/>
		<line class="st1" x1="301.6" y1="304.8" x2="301.6" y2="335.2"/>
		<line class="st1" x1="295.3" y1="311.8" x2="295.3" y2="335"/>
		<line class="st1" x1="289.5" y1="317.7" x2="289.5" y2="334.9"/>
		<line class="st1" x1="284" y1="322.5" x2="284" y2="334.7"/>
		<line class="st1" x1="278.2" y1="326.7" x2="278.2" y2="334.6"/>
		<line class="st1" x1="272.8" y1="329.9" x2="272.8" y2="334.6"/>
		<line class="st1" x1="371.8" y1="282.6" x2="371.8" y2="339.7"/>
		<line class="st1" x1="378.5" y1="303" x2="378.5" y2="340.5"/>
		<line class="st1" x1="385.6" y1="317.9" x2="385.6" y2="341.2"/>
		<line class="st1" x1="392.3" y1="327.9" x2="392.3" y2="342"/>
	</g>
</g>
<g>
	<path class="st0" d="M163,38.4h54.4l0,0c0.1-2.8-2.2-5.2-5-5.2c-0.5,0-1,0.1-1.5,0.2c0-0.1,0-0.1,0-0.2c0-4.3-3.5-7.8-7.8-7.8
		c-1.1,0-2.2,0.2-3.1,0.7c-1.2-4.3-5.1-7.5-9.8-7.5c-4.1,0-7.6,2.4-9.3,5.9c-0.3,0.6-1,0.9-1.7,0.6c-1-0.4-2.1-0.6-3.3-0.5
		c-3.7,0.2-6.8,3.1-7.3,6.8c-0.1,1.2,0,2.3,0.3,3.3c-0.6-0.3-1.2-0.5-1.9-0.5C164.7,34.2,162.9,36.1,163,38.4L163,38.4"/>
</g>
<g>
	<path class="st0" d="M114.2,86h57.7l0,0c0.1-3.1-2.3-5.5-5.4-5.5c-0.5,0-1.1,0.1-1.5,0.2c0-0.1,0-0.1,0-0.2c0-4.6-3.7-8.2-8.2-8.2
		c-1.2,0-2.3,0.2-3.3,0.7c-1.3-4.6-5.5-7.9-10.4-7.9c-4.4,0-8.1,2.5-9.9,6.3c-0.3,0.7-1.1,1-1.8,0.7c-1.1-0.4-2.3-0.7-3.5-0.5
		c-3.9,0.2-7.2,3.3-7.8,7.1c-0.1,1.2,0,2.4,0.3,3.5c-0.5-0.3-1.3-0.4-2-0.4C116,81.6,114,83.5,114.2,86L114.2,86"/>
</g>
</svg>
