<?xml version="1.0" encoding="utf-8"?>
<!-- Generator: Adobe Illustrator 25.4.1, SVG Export Plug-In . SVG Version: 6.00 Build 0)  -->
<svg version="1.1" id="BACKGROUND" xmlns="http://www.w3.org/2000/svg" xmlns:xlink="http://www.w3.org/1999/xlink" x="0px" y="0px"
	 viewBox="0 0 507 167" style="enable-background:new 0 0 507 167;" xml:space="preserve">
<style type="text/css">
	.st0{fill:none;stroke:#B7B7B7;stroke-linecap:round;stroke-linejoin:round;stroke-miterlimit:10;}
	.st1{fill:none;stroke:#A50404;stroke-linecap:round;stroke-linejoin:round;stroke-miterlimit:10;}
</style>
<g>
	<g>
		<line class="st1" x1="128.6" y1="133" x2="128.6" y2="173.2"/>
		<polyline class="st1" points="121.5,126 121.5,83.8 121.9,81.1 121.9,49.9 122.2,47.8 122.2,13.7 126.8,13.7 126.8,47.8 
			127.1,49.9 127.1,81.1 127.4,83.8 127.4,126 		"/>
		<line class="st1" x1="121.8" y1="173.2" x2="121.8" y2="133.4"/>
		<line class="st1" x1="157.6" y1="130.9" x2="157.6" y2="173.2"/>
		<polyline class="st1" points="150.6,123.6 150.6,83.8 151,81.1 151,49.9 151.4,47.8 151.4,13.7 155.7,13.7 155.7,47.8 156.2,49.9 
			156.2,81.1 156.4,83.8 156.4,123.2 		"/>
		<line class="st1" x1="150.9" y1="173.2" x2="150.9" y2="131.5"/>
		<line class="st1" x1="126.8" y1="16.8" x2="151.4" y2="16.8"/>
		<path class="st1" d="M151.4,24.3c0,0-1.6-1.7-3.4-1.7s-8.9,0-8.9,0s-7.1,0-8.9,0s-3.4,1.7-3.4,1.7"/>
		<path class="st1" d="M126.8,39.3c0,0,1.6,1.7,3.4,1.7s8.9,0,8.9,0s7.1,0,8.9,0c1.8,0,3.4-1.7,3.4-1.7"/>
		<g>
			<line class="st1" x1="130" y1="19.2" x2="130" y2="20.3"/>
			<line class="st1" x1="132.6" y1="19.2" x2="132.6" y2="20.3"/>
			<line class="st1" x1="135.2" y1="19.2" x2="135.2" y2="20.3"/>
			<line class="st1" x1="137.7" y1="19.2" x2="137.7" y2="20.3"/>
			<line class="st1" x1="140.2" y1="19.2" x2="140.2" y2="20.3"/>
			<line class="st1" x1="142.7" y1="19.2" x2="142.7" y2="20.3"/>
			<line class="st1" x1="145.3" y1="19.2" x2="145.3" y2="20.3"/>
			<line class="st1" x1="147.9" y1="19.2" x2="147.9" y2="20.3"/>
		</g>
		<path class="st1" d="M151,48.7c-0.6-0.4-1.7-1.5-3-1.5c-1.8,0-8.9,0-8.9,0s-7.1,0-8.9,0c-1.3,0-2.6,0.9-3,1.5"/>
		<g>
			<line class="st1" x1="130" y1="43.9" x2="130" y2="44.9"/>
			<line class="st1" x1="132.6" y1="43.9" x2="132.6" y2="44.9"/>
			<line class="st1" x1="135.2" y1="43.9" x2="135.2" y2="44.9"/>
			<line class="st1" x1="137.7" y1="43.9" x2="137.7" y2="44.9"/>
			<line class="st1" x1="140.2" y1="43.9" x2="140.2" y2="44.9"/>
			<line class="st1" x1="142.7" y1="43.9" x2="142.7" y2="44.9"/>
			<line class="st1" x1="145.3" y1="43.9" x2="145.3" y2="44.9"/>
			<line class="st1" x1="147.9" y1="43.9" x2="147.9" y2="44.9"/>
		</g>
		<path class="st1" d="M127.1,64.4c0,0,1.2,1.7,3,1.7s8.9,0,8.9,0s7.1,0,8.9,0c1.8,0,3-1.7,3-1.7"/>
		<path class="st1" d="M151,73.8c-0.6-0.4-1.7-1.5-3-1.5c-1.8,0-8.9,0-8.9,0s-7.1,0-8.9,0c-1.3,0-2.6,0.9-3,1.5"/>
		<g>
			<line class="st1" x1="130" y1="69" x2="130" y2="70.1"/>
			<line class="st1" x1="132.6" y1="69" x2="132.6" y2="70.1"/>
			<line class="st1" x1="135.2" y1="69" x2="135.2" y2="70.1"/>
			<line class="st1" x1="137.7" y1="69" x2="137.7" y2="70.1"/>
			<line class="st1" x1="140.2" y1="69" x2="140.2" y2="70.1"/>
			<line class="st1" x1="142.7" y1="69" x2="142.7" y2="70.1"/>
			<line class="st1" x1="145.3" y1="69" x2="145.3" y2="70.1"/>
			<line class="st1" x1="147.9" y1="69" x2="147.9" y2="70.1"/>
		</g>
		<path class="st1" d="M127.4,95.4c0,0,0.9,1.7,2.7,1.7c1.8,0,8.9,0,8.9,0s7.1,0,8.9,0c1.8,0,2.7-1.7,2.7-1.7"/>
		<path class="st1" d="M150.2,104.9c-0.6-0.4-0.9-1.5-2.2-1.5c-1.8,0-8.9,0-8.9,0s-7.1,0-8.9,0c-1.3,0-2,0.9-2.5,1.5"/>
		<g>
			<line class="st1" x1="130" y1="100.1" x2="130" y2="101.1"/>
			<line class="st1" x1="132.6" y1="100.1" x2="132.6" y2="101.1"/>
			<line class="st1" x1="135.2" y1="100.1" x2="135.2" y2="101.1"/>
			<line class="st1" x1="137.7" y1="100.1" x2="137.7" y2="101.1"/>
			<line class="st1" x1="140.2" y1="100.1" x2="140.2" y2="101.1"/>
			<line class="st1" x1="142.7" y1="100.1" x2="142.7" y2="101.1"/>
			<line class="st1" x1="145.3" y1="100.1" x2="145.3" y2="101.1"/>
			<line class="st1" x1="147.9" y1="100.1" x2="147.9" y2="101.1"/>
		</g>
		<g>
			<line class="st1" x1="122.2" y1="47.8" x2="126.8" y2="47.8"/>
			<line class="st1" x1="151.8" y1="47.8" x2="155.7" y2="47.8"/>
			<line class="st1" x1="122.2" y1="81.1" x2="126.8" y2="81.1"/>
			<line class="st1" x1="151.4" y1="81.1" x2="155.7" y2="81.1"/>
		</g>
	</g>
	<g>
		<line class="st1" x1="372.1" y1="131.8" x2="372.1" y2="173.2"/>
		<polyline class="st1" points="377.2,125.2 377.2,83.8 376.8,81.1 376.8,49.9 376.4,47.8 376.4,13.7 371.8,13.7 371.8,47.8 
			371.7,49.9 371.7,81.1 371.1,83.8 371.1,124.7 		"/>
		<line class="st1" x1="379" y1="173.2" x2="379" y2="132.3"/>
		<line class="st1" x1="343.1" y1="129.7" x2="343.1" y2="173.2"/>
		<polyline class="st1" points="348.1,122.8 348.1,83.8 347.7,81.1 347.7,49.9 347.3,47.8 347.3,13.7 342.9,13.7 342.9,47.8 
			342.5,49.9 342.5,81.1 342.2,83.8 342.2,122.4 		"/>
		<line class="st1" x1="350" y1="173.2" x2="350" y2="130.1"/>
		<line class="st1" x1="371.8" y1="16.8" x2="347.3" y2="16.8"/>
		<path class="st1" d="M347.3,24.3c0,0,1.6-1.7,3.4-1.7c1.8,0,8.9,0,8.9,0s7.1,0,8.9,0s3.4,1.7,3.4,1.7"/>
		<path class="st1" d="M371.8,39.3c0,0-1.6,1.7-3.4,1.7s-8.9,0-8.9,0s-7.1,0-8.9,0c-1.8,0-3.4-1.7-3.4-1.7"/>
		<g>
			<line class="st1" x1="368.7" y1="19.2" x2="368.7" y2="20.3"/>
			<line class="st1" x1="366.1" y1="19.2" x2="366.1" y2="20.3"/>
			<line class="st1" x1="363.5" y1="19.2" x2="363.5" y2="20.3"/>
			<line class="st1" x1="361" y1="19.2" x2="361" y2="20.3"/>
			<line class="st1" x1="358.5" y1="19.2" x2="358.5" y2="20.3"/>
			<line class="st1" x1="356" y1="19.2" x2="356" y2="20.3"/>
			<line class="st1" x1="353.4" y1="19.2" x2="353.4" y2="20.3"/>
			<line class="st1" x1="350.8" y1="19.2" x2="350.8" y2="20.3"/>
		</g>
		<path class="st1" d="M347.7,48.7c0.6-0.4,1.7-1.5,3-1.5c1.8,0,8.9,0,8.9,0s7.1,0,8.9,0c1.3,0,2.6,0.9,3,1.5"/>
		<g>
			<line class="st1" x1="368.7" y1="43.9" x2="368.7" y2="44.9"/>
			<line class="st1" x1="366.1" y1="43.9" x2="366.1" y2="44.9"/>
			<line class="st1" x1="363.5" y1="43.9" x2="363.5" y2="44.9"/>
			<line class="st1" x1="361" y1="43.9" x2="361" y2="44.9"/>
			<line class="st1" x1="358.5" y1="43.9" x2="358.5" y2="44.9"/>
			<line class="st1" x1="356" y1="43.9" x2="356" y2="44.9"/>
			<line class="st1" x1="353.4" y1="43.9" x2="353.4" y2="44.9"/>
			<line class="st1" x1="350.8" y1="43.9" x2="350.8" y2="44.9"/>
		</g>
		<path class="st1" d="M371.7,64.4c0,0-1.2,1.7-3,1.7c-1.8,0-8.9,0-8.9,0s-7.1,0-8.9,0c-1.8,0-3-1.7-3-1.7"/>
		<path class="st1" d="M347.7,73.8c0.6-0.4,1.7-1.5,3-1.5c1.8,0,8.9,0,8.9,0s7.1,0,8.9,0c1.3,0,2.6,0.9,3,1.5"/>
		<g>
			<line class="st1" x1="368.7" y1="69" x2="368.7" y2="70.1"/>
			<line class="st1" x1="366.1" y1="69" x2="366.1" y2="70.1"/>
			<line class="st1" x1="363.5" y1="69" x2="363.5" y2="70.1"/>
			<line class="st1" x1="361" y1="69" x2="361" y2="70.1"/>
			<line class="st1" x1="358.5" y1="69" x2="358.5" y2="70.1"/>
			<line class="st1" x1="356" y1="69" x2="356" y2="70.1"/>
			<line class="st1" x1="353.4" y1="69" x2="353.4" y2="70.1"/>
			<line class="st1" x1="350.8" y1="69" x2="350.8" y2="70.1"/>
		</g>
		<path class="st1" d="M371.1,95.4c0,0-0.8,1.7-2.7,1.7c-1.9,0-8.9,0-8.9,0s-7.1,0-8.9,0c-1.8,0-2.5-1.7-2.5-1.7"/>
		<path class="st1" d="M348.2,104.9c0.6-0.4,1.1-1.5,2.5-1.5c1.8,0,8.9,0,8.9,0s7.1,0,8.9,0c1.3,0,2.1,0.9,2.7,1.5"/>
		<g>
			<line class="st1" x1="368.7" y1="100.1" x2="368.7" y2="101.1"/>
			<line class="st1" x1="366.1" y1="100.1" x2="366.1" y2="101.1"/>
			<line class="st1" x1="363.5" y1="100.1" x2="363.5" y2="101.1"/>
			<line class="st1" x1="361" y1="100.1" x2="361" y2="101.1"/>
			<line class="st1" x1="358.5" y1="100.1" x2="358.5" y2="101.1"/>
			<line class="st1" x1="356" y1="100.1" x2="356" y2="101.1"/>
			<line class="st1" x1="353.4" y1="100.1" x2="353.4" y2="101.1"/>
			<line class="st1" x1="350.8" y1="100.1" x2="350.8" y2="101.1"/>
		</g>
		<g>
			<line class="st1" x1="376.4" y1="47.8" x2="371.8" y2="47.8"/>
			<line class="st1" x1="346.9" y1="47.8" x2="342.9" y2="47.8"/>
			<line class="st1" x1="376.4" y1="81.1" x2="371.8" y2="81.1"/>
			<line class="st1" x1="347.3" y1="81.1" x2="342.9" y2="81.1"/>
		</g>
	</g>
	<path class="st1" d="M79.8,137.5c0,0,94.1-10.4,184.5-10.4s158.5,10.4,158.5,10.4"/>
	<path class="st1" d="M79.8,133.2c0,0,94.1-10.4,184.5-10.4S423,133.2,423,133.2"/>
	<path class="st1" d="M79.8,130.3c0,0,94.1-10.4,184.5-10.4S423,130.3,423,130.3"/>
	<path class="st1" d="M155.7,24.3c0,0,40.4,95.6,90,95.6c55.1,5.2,97.1-96,97.1-96"/>
	<path class="st1" d="M122.2,30.6c0,0-8.6,62.5-42.4,96.4"/>
	<path class="st1" d="M376.4,20.3c0,0,7.6,84.1,46.6,106.9"/>
	<g>
		<line class="st1" x1="163.2" y1="39.9" x2="163.2" y2="123.6"/>
		<line class="st1" x1="171.1" y1="54.5" x2="171.1" y2="122.8"/>
		<line class="st1" x1="178.7" y1="67.1" x2="178.7" y2="122.8"/>
		<line class="st1" x1="185.8" y1="77.5" x2="185.8" y2="122.2"/>
		<line class="st1" x1="193.2" y1="87.3" x2="193.2" y2="121.9"/>
		<line class="st1" x1="200.3" y1="95.3" x2="200.3" y2="121.5"/>
		<line class="st1" x1="206.9" y1="101.8" x2="206.9" y2="121.3"/>
		<line class="st1" x1="213" y1="107.3" x2="213" y2="121"/>
		<line class="st1" x1="219.5" y1="111.5" x2="219.5" y2="120.8"/>
		<line class="st1" x1="225.5" y1="115" x2="225.5" y2="120.1"/>
		<line class="st1" x1="114.5" y1="63.5" x2="114.5" y2="127.2"/>
		<line class="st1" x1="106.9" y1="84.5" x2="106.9" y2="127.8"/>
		<line class="st1" x1="99" y1="100.9" x2="99" y2="128.5"/>
		<line class="st1" x1="91.4" y1="113.1" x2="91.4" y2="129.2"/>
	</g>
	<g>
		<line class="st1" x1="335.6" y1="39.6" x2="335.6" y2="122.1"/>
		<line class="st1" x1="327.7" y1="54.5" x2="327.7" y2="121.8"/>
		<line class="st1" x1="319.8" y1="67.3" x2="319.8" y2="121.3"/>
		<line class="st1" x1="312.8" y1="77.3" x2="312.8" y2="121"/>
		<line class="st1" x1="305.4" y1="86.6" x2="305.4" y2="120.8"/>
		<line class="st1" x1="298.3" y1="94.5" x2="298.3" y2="120.5"/>
		<line class="st1" x1="291.8" y1="101.1" x2="291.8" y2="120.4"/>
		<line class="st1" x1="285.6" y1="106.5" x2="285.6" y2="120.2"/>
		<line class="st1" x1="279.1" y1="111.2" x2="279.1" y2="120.1"/>
		<line class="st1" x1="273" y1="114.8" x2="273" y2="120.1"/>
		<line class="st1" x1="384.2" y1="61.7" x2="384.2" y2="125.8"/>
		<line class="st1" x1="391.7" y1="84.6" x2="391.7" y2="126.7"/>
		<line class="st1" x1="399.7" y1="101.3" x2="399.7" y2="127.5"/>
		<line class="st1" x1="407.2" y1="112.6" x2="407.2" y2="128.4"/>
	</g>
</g>
</svg>
