<?xml version="1.0" encoding="utf-8"?>
<!-- Generator: Adobe Illustrator 25.4.1, SVG Export Plug-In . SVG Version: 6.00 Build 0)  -->
<svg version="1.1" id="BACKGROUND" xmlns="http://www.w3.org/2000/svg" xmlns:xlink="http://www.w3.org/1999/xlink" x="0px" y="0px"
	 viewBox="0 0 549 169" style="enable-background:new 0 0 549 169;" xml:space="preserve">
<style type="text/css">
	.st0{fill:none;stroke:#B7B7B7;stroke-linecap:round;stroke-linejoin:round;stroke-miterlimit:10;}
</style>
<g>
	<path class="st0" d="M21.4,50.2h75.8l0,0c0.1-4-3.1-7.2-7-7.2c-0.7,0-1.4,0.1-2,0.3c0-0.1,0-0.2,0-0.3c0-6-4.9-10.9-10.9-10.9
		c-1.6,0-3,0.3-4.3,0.9c-1.7-6-7.2-10.4-13.7-10.4c-5.7,0-10.7,3.4-12.9,8.3c-0.4,0.9-1.4,1.2-2.3,0.9c-1.4-0.6-3-0.8-4.6-0.8
		c-5.1,0.3-9.5,4.3-10.2,9.4c-0.2,1.6-0.1,3.2,0.4,4.6c-0.8-0.4-1.7-0.6-2.6-0.6C23.8,44.3,21.2,47,21.4,50.2L21.4,50.2"/>
</g>
<g>
	<path class="st0" d="M148,34.4h54.4l0,0c0.1-2.8-2.2-5.2-5-5.2c-0.5,0-1,0.1-1.5,0.2c0-0.1,0-0.1,0-0.2c0-4.3-3.5-7.8-7.8-7.8
		c-1.1,0-2.2,0.2-3.1,0.7c-1.2-4.3-5.1-7.5-9.8-7.5c-4.1,0-7.6,2.4-9.3,5.9c-0.3,0.6-1,0.9-1.7,0.6c-1-0.4-2.1-0.6-3.3-0.5
		c-3.7,0.2-6.8,3.1-7.3,6.8c-0.1,1.2,0,2.3,0.3,3.3c-0.6-0.3-1.2-0.5-1.9-0.5C149.7,30.2,147.9,32.1,148,34.4L148,34.4"/>
</g>
<g>
	<path class="st0" d="M113.2,78h57.7l0,0c0.1-3.1-2.3-5.5-5.4-5.5c-0.5,0-1.1,0.1-1.5,0.2c0-0.1,0-0.1,0-0.2c0-4.6-3.7-8.2-8.2-8.2
		c-1.2,0-2.3,0.2-3.3,0.7c-1.3-4.6-5.5-7.9-10.4-7.9c-4.4,0-8.1,2.5-9.9,6.3c-0.3,0.7-1.1,1-1.8,0.7c-1.1-0.4-2.3-0.7-3.5-0.5
		c-3.9,0.2-7.2,3.3-7.8,7.1c-0.1,1.2,0,2.4,0.3,3.5c-0.5-0.3-1.3-0.4-2-0.4C115,73.6,113,75.5,113.2,78L113.2,78"/>
</g>
</svg>
